<svg width="24" height="24" viewBox="0 0 24 24" fill="none" xmlns="http://www.w3.org/2000/svg">
<path d="M22.1132 14.9972C22.0535 14.7184 21.917 14.4618 21.7061 14.2344C21.6249 14.1469 21.5347 14.0641 21.4366 13.9894C21.3892 13.9533 21.3384 13.9194 21.2866 13.8856C21.2223 13.8436 21.1557 13.8039 21.0824 13.7655C20.814 13.6231 20.5851 13.4797 20.3843 13.3257C20.3031 13.2639 20.2242 13.1986 20.1497 13.1321C19.9704 12.9699 19.8497 12.8311 19.7595 12.6842C19.7302 12.6375 19.7042 12.5862 19.6794 12.5372C19.6693 12.5162 19.6535 12.4987 19.6355 12.4847C19.6027 12.4602 19.561 12.4497 19.5193 12.4567C19.455 12.4695 19.4054 12.5232 19.3975 12.5908C19.3918 12.6433 19.3918 12.6993 19.3986 12.7565C19.4031 12.7903 19.3851 12.823 19.3546 12.837C19.3479 12.8405 19.34 12.8416 19.3332 12.8428C19.2903 12.8475 19.252 12.872 19.2272 12.9093C19.2024 12.9466 19.1956 12.9921 19.2058 13.0353C19.2148 13.0726 19.2272 13.0994 19.2373 13.1204L19.2464 13.1391C19.2531 13.1519 19.2599 13.1659 19.2667 13.1787C19.287 13.2184 19.3073 13.258 19.3321 13.2954C19.3794 13.3665 19.4324 13.4377 19.4956 13.5135C19.5159 13.538 19.5193 13.573 19.5046 13.601C19.49 13.629 19.4595 13.6453 19.4291 13.6406C19.0738 13.5905 18.7546 13.5077 18.458 13.3945C18.4242 13.3817 18.3892 13.3689 18.3565 13.3549C18.0904 13.2382 18.5708 12.7436 18.7907 12.3925C19.755 10.8587 19.9546 9.10198 19.9625 7.32431C19.9704 5.60612 19.7911 3.91127 19.4606 2.23857V2.23624C19.2452 0.834165 19.0625 0.308095 18.9475 0.113298C18.9227 0.0619736 18.8956 0.029313 18.8674 0.0141491C18.8358 -0.0080135 18.8189 0.00248457 18.8189 0.00248457C18.7569 0.00481747 18.6858 0.0619736 18.6001 0.154123C18.2404 0.544885 18.2607 1.0103 18.3599 1.49671C18.8144 3.70597 19.1561 5.92806 19.0005 8.19798C18.8934 9.76336 18.6114 11.2704 17.5535 12.4964C17.4904 12.5698 17.4216 12.6387 17.3528 12.7086C17.2738 12.7891 17.1509 12.9454 17.0596 12.8801C16.9377 12.7926 17.046 12.613 17.0844 12.5197C17.7035 11.0185 17.8817 9.44958 17.787 7.83288C17.7847 7.79555 17.7813 7.75823 17.7791 7.7209V7.71857C17.778 7.68824 17.7746 7.66024 17.7723 7.63108C17.7565 7.41646 17.7374 7.20416 17.7114 6.99187C17.4453 4.42684 17.125 4.26004 17.125 4.26004C17.1035 4.24021 17.0776 4.22504 17.0426 4.21804C16.8746 4.18188 16.7832 4.33469 16.7088 4.45017C16.3727 4.9704 16.5216 5.52447 16.6299 6.0727C17.0099 7.99268 17.0156 9.89517 16.3637 11.7627C16.3039 11.933 16.2329 12.0986 16.1573 12.2619C16.0772 12.4357 16.0254 12.6527 15.7524 12.5593C15.4964 12.4719 15.5686 12.2712 15.6013 12.0881C15.687 11.6227 15.7558 11.1561 15.7987 10.6884V10.6907C15.8043 10.644 15.8066 10.5997 15.8099 10.5554C15.8167 10.4749 15.8212 10.3932 15.8257 10.3128C15.8291 10.2451 15.8325 10.1786 15.8359 10.1133C15.837 10.0795 15.8393 10.0468 15.8393 10.013C15.8911 8.53042 15.6498 7.85621 15.5584 7.65674C15.5483 7.63225 15.537 7.61009 15.5246 7.59026C15.4299 7.44328 15.2731 7.46078 15.1378 7.59959C14.8885 7.85388 14.7509 8.15482 14.8141 8.53392C14.9991 9.63738 14.8908 10.7303 14.6923 11.8175C14.6652 11.9633 14.6021 12.2292 14.3009 12.1604C14.0957 12.1138 14.0483 12.0228 14.037 11.8385C14.0393 11.6997 14.037 11.5609 14.0325 11.4221C14.0325 11.4186 14.0325 11.4151 14.0325 11.4116C14.0325 11.3917 14.0303 11.3719 14.0303 11.3532C14.0303 11.3427 14.0291 11.3334 14.028 11.3241C14.019 11.1351 14.0043 10.945 13.9818 10.7548C13.9795 10.7362 13.9761 10.7187 13.9739 10.7C13.8588 9.62922 13.7088 9.5254 13.7088 9.5254C13.613 9.39593 13.463 9.41809 13.3333 9.55106C13.084 9.80535 12.9577 10.1051 13.0096 10.4854C13.048 10.763 13.0378 10.6779 13.0649 10.9205C13.0863 11.0453 13.1089 11.2727 13.1111 11.3451C13.1055 11.4092 13.0897 11.4652 13.0513 11.5072C12.9239 11.6483 12.7186 11.5037 12.563 11.4372C9.54499 10.146 6.96233 8.33329 4.70785 6.04004C3.81914 5.10338 2.30901 3.21256 2.30901 3.21256C2.25262 3.14491 2.1827 3.10641 2.07555 3.15424C1.87819 3.24172 1.88383 3.50301 1.86578 3.7223C1.82969 4.16205 2.05751 4.48049 2.3045 4.77911C5.70934 8.88735 9.86416 11.8396 14.8795 13.3164L15.7817 13.5637C15.7919 13.566 15.8032 13.5695 15.8133 13.5718C15.8156 13.5718 15.8167 13.5718 15.8178 13.573L16.5949 13.7865L16.6163 13.7923C16.5904 13.8004 16.5622 13.8063 16.5317 13.8121C15.6769 13.9871 13.9852 13.6651 12.6262 13.3374C11.954 13.1916 11.2931 13.0143 10.6469 12.8031C10.6175 12.7938 10.6006 12.7891 10.6006 12.7891C8.09013 11.9621 5.79054 10.6219 3.77854 8.57824C3.58794 8.38461 3.412 8.17582 3.23832 7.96469C3.0793 7.76872 2.75111 7.3593 2.6372 7.21816C2.62479 7.1995 2.61126 7.18316 2.59773 7.168C2.56389 7.13184 2.52216 7.10851 2.46239 7.12251C2.32254 7.15634 2.28194 7.30564 2.256 7.43162C2.15337 7.93786 2.30901 8.36362 2.63833 8.74388C4.69883 11.1328 7.28488 12.6585 10.189 13.6593C11.8378 14.2274 13.534 14.5726 15.2641 14.7931C14.2321 15.1384 13.1709 15.2434 12.1006 15.2154C10.0288 15.1617 8.08562 14.6473 6.25971 13.7293C5.58641 13.3712 4.95935 12.9723 4.79469 12.865C4.69995 12.7985 4.60183 12.7576 4.50484 12.8346C4.32327 12.9804 4.44845 13.2359 4.5071 13.4354C4.61875 13.8191 4.87702 14.0839 5.21198 14.267C8.18712 15.8942 11.3281 16.5451 14.672 15.9677C15.0103 15.9094 15.3318 15.8452 15.6859 15.7216C15.1265 16.222 14.4791 16.5486 13.7991 16.8064C11.7047 17.5984 9.62394 17.5669 7.55104 17.0304C6.88564 16.8461 6.11422 16.5463 6.11422 16.5463C6.00257 16.4961 5.89204 16.4786 5.80633 16.6058C5.6552 16.8297 5.78715 17.0619 5.91798 17.2741C6.227 17.7722 6.82474 17.8212 7.29728 17.9903C7.45856 18.044 7.01872 18.3473 6.87774 18.4593C6.19204 19.0017 5.52099 19.4974 4.83867 20.0223L4.39206 20.3629C4.31537 20.4177 4.2477 20.4796 4.28267 20.5939C4.32327 20.7233 4.45296 20.7467 4.57928 20.7735C5.06762 20.8785 5.4849 20.7105 5.87061 20.4119C6.69729 19.7715 7.53976 19.1498 8.3484 18.4849C8.65629 18.2318 8.93598 18.2528 9.35665 18.3648C8.30441 19.1848 7.31984 19.9535 6.33414 20.721C5.33378 21.499 4.33342 22.2771 3.33305 23.0539L2.67216 23.5602C2.66201 23.5672 2.65299 23.5742 2.64397 23.5823L2.63382 23.5893C2.57743 23.636 2.5357 23.6885 2.5481 23.7561C2.57517 23.9101 2.74998 23.9486 2.89321 23.9742C3.48418 24.0792 3.85072 23.8494 4.25447 23.5357C6.27662 21.9656 8.30554 20.4061 10.3164 18.8209C10.7675 18.4651 11.2311 18.2645 11.8818 18.3403C11.3281 18.7684 10.7957 19.1801 10.2713 19.5861L8.84576 20.6767C8.83561 20.6837 8.82546 20.6919 8.81643 20.7C8.74087 20.7618 8.68787 20.8342 8.71719 20.9415C8.77132 21.1363 8.99801 21.1596 9.19087 21.1899C9.545 21.2447 9.84499 21.1153 10.1236 20.9006C10.2837 20.777 10.445 20.6557 10.6063 20.5355L12.7829 18.7474C12.7829 18.7474 13.2972 18.3671 13.8927 18.0183C13.9457 17.9845 13.9987 17.9495 14.0528 17.9157C14.0754 17.9052 14.1318 17.8784 14.2175 17.8364C14.2818 17.8025 14.3461 17.7687 14.4092 17.7372C14.5028 17.6882 14.6111 17.6287 14.7329 17.5599C15.0836 17.4095 16.0885 16.9242 16.9186 16.0097C17.3133 15.6948 17.8693 15.283 18.3024 15.0847H18.3046C18.3374 15.0695 18.3701 15.0556 18.4016 15.0439C18.4016 15.0439 18.4039 15.0439 18.405 15.0427C18.4264 15.0346 18.4467 15.0276 18.467 15.0206L18.5223 14.9984C18.6791 14.9529 18.934 14.9354 18.9678 15.2923C18.9734 15.3798 18.9723 15.4696 18.9622 15.5641C18.9554 15.6353 18.9419 15.7111 18.9317 15.7718C18.9216 15.8301 18.9452 15.8884 18.9903 15.9234C18.9971 15.9292 19.005 15.9339 19.0129 15.9374C19.0727 15.9677 19.1449 15.9537 19.19 15.9024C19.2069 15.8837 19.2238 15.8639 19.2407 15.8452C19.4539 15.6131 19.6704 15.4521 19.9005 15.3542C20.2366 15.2107 20.5772 15.2095 20.9392 15.353C21.1117 15.4207 21.2742 15.514 21.4354 15.6364C21.5042 15.6889 21.573 15.7473 21.6418 15.8114C21.6824 15.8499 21.723 15.8919 21.7591 15.9292L21.7647 15.9351L21.7941 15.9654C21.7941 15.9654 21.8053 15.9759 21.811 15.9805C21.8448 16.0062 21.8888 16.0167 21.9317 16.0074C21.9813 15.9957 22.0219 15.9596 22.0399 15.9106C22.0433 15.9012 22.0467 15.8919 22.0501 15.8826C22.1527 15.5676 22.1741 15.2783 22.1144 14.9961L22.1132 14.9972Z" fill="url(#paint0_linear_402_3)"/>
<path d="M18.1582 13.3549C18.1698 13.3597 18.1802 13.3644 18.1918 13.368C18.1802 13.3632 18.1686 13.3597 18.1582 13.3549Z" fill="#FEDBB5"/>
<path d="M16.9452 12.3739C16.9452 12.3739 16.9435 12.3781 16.9435 12.3803C16.9435 12.3781 16.9452 12.376 16.9452 12.3739Z" fill="#FEDBB5"/>
<path d="M18.6062 12.3715C18.6062 12.3715 18.6027 12.3776 18.6003 12.3801C18.6027 12.3776 18.6038 12.374 18.6062 12.3715Z" fill="#FEDBB5"/>
<path d="M15.959 12.2619C15.9398 12.3027 15.9229 12.3459 15.9048 12.3867C15.924 12.3459 15.9409 12.3027 15.959 12.2619Z" fill="#FEDBB5"/>
<path d="M13.8906 12.0379L13.8913 12.0388L13.8906 12.0379Z" fill="#FEDBB5"/>
<path d="M13.8895 12.0356C13.8895 12.0356 13.8895 12.0365 13.8901 12.0373C13.8901 12.0373 13.8901 12.0365 13.8895 12.0356Z" fill="#FEDBB5"/>
<path d="M13.8951 12.0438C13.912 12.0671 13.9335 12.0881 13.9605 12.1056C13.9335 12.0881 13.912 12.0683 13.8951 12.0438ZM13.8951 12.0414C13.8951 12.0414 13.8951 12.0414 13.8951 12.0426C13.8951 12.0426 13.8951 12.0426 13.8951 12.0414ZM13.8444 11.8396C13.8444 11.8396 13.8444 11.8408 13.8444 11.842C13.8444 11.842 13.8444 11.8408 13.8444 11.8396ZM12.5361 11.5165C12.5361 11.5165 12.5384 11.5165 12.5384 11.5177C12.6015 11.5457 12.6647 11.5679 12.7233 11.5679C12.7481 11.5679 12.7718 11.5644 12.7932 11.555C12.7707 11.5644 12.747 11.5679 12.7233 11.5679C12.6635 11.5679 12.5993 11.5445 12.5361 11.5165ZM13.8353 11.3124C13.8353 11.3124 13.8353 11.3124 13.8353 11.3136C13.8353 11.3136 13.8353 11.3136 13.8353 11.3124Z" fill="#E5B4A6"/>
<path d="M18.1909 13.3677C18.1909 13.3677 18.201 13.3723 18.2067 13.3735C18.2067 13.3735 18.1965 13.3688 18.1909 13.3677ZM16.806 12.7646C16.806 12.8089 16.8206 12.8486 16.8623 12.8789C16.877 12.8894 16.8928 12.8941 16.9097 12.8941C16.9345 12.8941 16.9605 12.8836 16.9875 12.8661C16.9616 12.8836 16.9357 12.8941 16.9097 12.8941C16.8928 12.8941 16.877 12.8894 16.8623 12.8789C16.8206 12.8498 16.806 12.8089 16.806 12.7646ZM16.8939 12.501C16.8939 12.501 16.8894 12.5127 16.8872 12.5185C16.8894 12.5127 16.8917 12.5068 16.8939 12.501ZM16.9368 12.396C16.9232 12.431 16.9086 12.466 16.8939 12.501C16.9086 12.466 16.9221 12.431 16.9368 12.396ZM16.9424 12.3808C16.9424 12.3808 16.9379 12.3902 16.9368 12.396C16.939 12.3913 16.9413 12.3867 16.9424 12.3808ZM18.6003 12.3808C18.6003 12.3808 18.6003 12.382 18.5992 12.3832C18.5992 12.3832 18.5992 12.382 18.6003 12.3808ZM18.6071 12.3703C18.6071 12.3703 18.6071 12.3715 18.6059 12.3727C18.6059 12.3727 18.6059 12.3715 18.6071 12.3703ZM16.9481 12.3703C16.9481 12.3703 16.9469 12.375 16.9458 12.3762C16.9458 12.3738 16.9469 12.3715 16.9481 12.3703ZM15.368 12.3237C15.368 12.424 15.4064 12.5115 15.5541 12.5616C15.5992 12.5768 15.6387 12.5838 15.6736 12.5838C15.7977 12.5838 15.8575 12.4928 15.9048 12.389C15.8563 12.494 15.7966 12.5838 15.6736 12.5838C15.6398 12.5838 15.6003 12.5768 15.5541 12.5616C15.4075 12.5115 15.368 12.424 15.368 12.3237ZM14.4026 12.0706C14.3586 12.1301 14.2932 12.1744 14.1951 12.1744C14.1849 12.1744 14.1748 12.1744 14.1646 12.1732C14.1748 12.1732 14.1849 12.1744 14.1951 12.1744C14.2932 12.1744 14.3586 12.1312 14.4026 12.0706ZM16.3086 11.3205C16.3086 11.3205 16.3086 11.3205 16.3075 11.3205C16.2635 11.4687 16.2172 11.618 16.1665 11.7661C16.2184 11.618 16.2657 11.4698 16.3097 11.3205M14.5932 11.2377C14.5695 11.401 14.5425 11.5632 14.5131 11.7265C14.5425 11.5643 14.5695 11.401 14.5932 11.2377ZM18.4424 10.4574C18.227 11.1899 17.8909 11.8804 17.3575 12.4987C17.2943 12.5721 17.2255 12.641 17.1567 12.711C17.2255 12.6421 17.2932 12.5721 17.3575 12.4987C17.8909 11.8804 18.227 11.1899 18.4435 10.4574" fill="#E5B4A6"/>
<path opacity="0.4" d="M1.96745 3.13443C1.94038 3.13443 1.91106 3.14143 1.87835 3.15543C1.73851 3.21841 1.70016 3.36889 1.68437 3.52869C2.43549 4.547 5.40161 8.30181 10.0673 10.8773C10.0673 10.8773 14.6361 13.3712 19.2307 13.6407C18.8755 13.5905 18.5563 13.5077 18.2597 13.3945C18.2417 13.3875 18.2247 13.3817 18.2067 13.3747C16.5375 13.0015 15.1143 12.5349 14.1071 12.1616C14.1263 12.1663 14.1455 12.1686 14.1624 12.1709C14.1443 12.1698 14.124 12.1663 14.1037 12.1616C14.0428 12.1476 13.9955 12.1301 13.9594 12.1068C13.1632 11.8058 12.6556 11.5749 12.5338 11.5177C12.4752 11.4921 12.4177 11.4606 12.3658 11.4384C9.3478 10.1471 6.76513 8.33447 4.51065 6.04123C3.62194 5.10457 2.11181 3.21375 2.11181 3.21375C2.07346 3.16709 2.02722 3.13443 1.96745 3.13443Z" fill="url(#paint1_linear_402_3)"/>
<path opacity="0.4" d="M2.30014 7.12018C2.28999 7.12018 2.27872 7.12134 2.26631 7.12484C2.12646 7.15867 2.08586 7.30798 2.05992 7.43395C2.05541 7.45612 2.0509 7.47945 2.04752 7.50161C4.37981 10.77 7.51059 12.1056 7.51059 12.1056C10.6357 13.6278 13.2004 13.9358 14.7624 13.9358C15.4086 13.9358 15.8834 13.8833 16.1552 13.8424C16.0311 13.8564 15.8947 13.8634 15.7481 13.8634C14.8323 13.8634 13.5229 13.6033 12.4301 13.3397C11.7579 13.1939 11.097 13.0166 10.4508 12.8055C10.4215 12.7961 10.4045 12.7915 10.4045 12.7915C7.89405 11.9645 5.59446 10.6242 3.58246 8.58058C3.39186 8.38695 3.21592 8.17815 3.04224 7.96702C2.88322 7.77106 2.55503 7.36163 2.44112 7.22049C2.42871 7.20183 2.41518 7.1855 2.40165 7.17034C2.37458 7.14117 2.34187 7.12018 2.30014 7.12018Z" fill="url(#paint2_linear_402_3)"/>
<path opacity="0.4" d="M4.42156 12.7973C4.38434 12.7973 4.34713 12.809 4.30991 12.8393C4.15202 12.9664 4.22645 13.1764 4.28623 13.3595C5.45576 14.0932 8.13767 15.5221 11.3136 15.5221C12.5135 15.5221 13.7823 15.3192 15.068 14.7978C14.1398 15.1092 13.1868 15.2247 12.226 15.2247C12.1188 15.2247 12.0117 15.2235 11.9045 15.22C9.83276 15.1664 7.88956 14.652 6.06364 13.734C5.39034 13.3759 4.76329 12.9769 4.59863 12.8696C4.53998 12.8288 4.48134 12.7973 4.42156 12.7973Z" fill="url(#paint3_linear_402_3)"/>
<path opacity="0.4" d="M15.2823 15.9001C14.7725 16.3036 14.2007 16.5836 13.6019 16.8099C12.4786 17.2345 11.3587 17.4223 10.2421 17.4223C9.27674 17.4223 8.31472 17.2823 7.35384 17.0338C6.68843 16.8495 5.91701 16.5498 5.91701 16.5498C5.86852 16.5276 5.82002 16.5124 5.77378 16.5124C5.71401 16.5124 5.65762 16.5381 5.61025 16.6104C5.54033 16.7142 5.53131 16.8204 5.55386 16.9254C6.29145 17.28 7.87375 17.9099 9.80342 17.9099C11.476 17.9099 13.4101 17.4363 15.2823 15.9001Z" fill="url(#paint4_linear_402_3)"/>
<path opacity="0.4" d="M10.3075 18.3741C8.49517 18.3741 7.12488 17.995 6.9512 17.9448C7.00195 17.96 7.05158 17.9763 7.1012 17.9938C7.26248 18.0475 6.82263 18.3507 6.68166 18.4627C6.17527 18.864 5.67566 19.2396 5.17491 19.6198H6.71324C7.19819 19.2489 7.68089 18.8768 8.15231 18.4884C8.32712 18.3437 8.49404 18.2889 8.68238 18.2889C8.82448 18.2889 8.98012 18.3204 9.16057 18.3694C8.10833 19.1894 7.12376 19.9581 6.13806 20.7256C5.56175 21.1736 4.98544 21.6215 4.40913 22.0694H5.95648C7.34819 20.9928 8.73877 19.915 10.1203 18.8255C10.4395 18.5747 10.7643 18.4009 11.1568 18.3472C10.8658 18.3671 10.5816 18.3752 10.3087 18.3752L10.3075 18.3741Z" fill="url(#paint5_linear_402_3)"/>
<path opacity="0.4" d="M9.98276 19.6584H11.4782L12.5823 18.7509C12.5823 18.7509 13.0966 18.3706 13.6921 18.0218C13.7451 17.988 13.7981 17.953 13.8523 17.9192C13.8748 17.9087 13.9312 17.8819 14.0169 17.8399C14.0812 17.8061 14.1455 17.7722 14.2086 17.7407C14.3056 17.6894 14.4195 17.6276 14.5459 17.5553C13.4801 18.0172 12.3884 18.2423 11.3778 18.3298C11.3914 18.3298 11.406 18.3298 11.4196 18.3298C11.5042 18.3298 11.5921 18.3345 11.6835 18.345C11.1297 18.773 10.5974 19.1848 10.073 19.5907L9.98276 19.6595V19.6584Z" fill="url(#paint6_linear_402_3)"/>
<path opacity="0.4" d="M13.8398 11.8384C13.8421 11.6996 13.8398 11.5608 13.8353 11.422V11.4115C13.8353 11.3917 13.8331 11.3719 13.8331 11.3532L13.8308 11.324C13.8252 11.2074 13.8162 11.0907 13.806 10.9729C13.4496 10.8178 13.1135 10.6195 12.8034 10.3862C12.8056 10.4189 12.8068 10.4515 12.8113 10.4865C12.8496 10.7641 12.8395 10.679 12.8665 10.9216C12.888 11.0464 12.9105 11.2739 12.9128 11.3462C12.9071 11.4103 12.8914 11.4663 12.853 11.5083C12.8135 11.5515 12.7673 11.5678 12.7177 11.5678C12.6579 11.5678 12.5936 11.5445 12.5305 11.5165C12.6489 11.5713 13.1575 11.8034 13.9594 12.1067C13.8737 12.0519 13.8466 11.9691 13.8387 11.8396L13.8398 11.8384Z" fill="url(#paint7_linear_402_3)"/>
<path opacity="0.4" d="M19.6559 9.21512C19.3221 9.6957 18.9116 10.1168 18.4413 10.4551C18.2259 11.1876 17.8898 11.8781 17.3563 12.4963C17.2932 12.5698 17.2244 12.6387 17.1556 12.7086C17.089 12.7751 16.9932 12.8964 16.9097 12.8964C16.8928 12.8964 16.877 12.8918 16.8623 12.8813C16.7405 12.7938 16.8488 12.6142 16.8872 12.5208C17.0868 12.0368 17.2402 11.5457 17.3541 11.0476C17.0202 11.1771 16.6695 11.2681 16.3075 11.3194C16.2635 11.4675 16.2172 11.6168 16.1665 11.765C16.1067 11.9353 16.0357 12.1009 15.9601 12.2642C15.8936 12.4089 15.8462 12.5838 15.6736 12.5838C15.6398 12.5838 15.6003 12.5768 15.5541 12.5617C15.2981 12.4742 15.3703 12.2736 15.403 12.0904C15.4469 11.8478 15.4875 11.6052 15.5214 11.3614C15.2033 11.3509 14.8921 11.3089 14.5909 11.2366C14.5627 11.4314 14.53 11.625 14.494 11.8186C14.4703 11.9481 14.4173 12.1732 14.194 12.1732C14.1669 12.1732 14.1376 12.1697 14.106 12.1627C15.1131 12.5372 16.5353 13.0038 18.2056 13.377C18.1886 13.37 18.1728 13.3642 18.1571 13.3572C17.8909 13.2405 18.3713 12.746 18.5913 12.3949C19.2104 11.4092 19.5138 10.3326 19.6537 9.21628L19.6559 9.21512Z" fill="url(#paint8_linear_402_3)"/>
<path opacity="0.5" d="M19.4055 14.5575C19.1969 14.5575 18.986 14.5785 18.7796 14.6169C18.7401 14.6239 18.7018 14.6274 18.6657 14.6274C18.607 14.6274 18.5518 14.6181 18.4999 14.6018C18.5078 14.6123 18.5168 14.6228 18.5247 14.6344C18.6149 14.7651 18.6623 14.9074 18.6804 15.0555C18.7029 15.0812 18.7221 15.1127 18.7379 15.1535C18.7379 15.1535 18.7379 15.1535 18.7379 15.1558C18.7379 15.1558 18.7379 15.1558 18.7379 15.157C18.7379 15.157 18.7379 15.157 18.7379 15.1582C18.7379 15.1582 18.7379 15.1582 18.7379 15.1593C18.7379 15.1593 18.7379 15.1593 18.7379 15.1605C18.7379 15.1605 18.7379 15.1605 18.7379 15.1617C18.7379 15.1617 18.7379 15.1617 18.7379 15.1628C18.7379 15.1628 18.7379 15.1628 18.7379 15.164V15.1663C18.7379 15.1663 18.7379 15.1663 18.7379 15.1675C18.7379 15.1675 18.7379 15.1675 18.7379 15.1687C18.7379 15.1687 18.7379 15.1687 18.7379 15.1698C18.7379 15.1698 18.7379 15.1698 18.7379 15.171C18.7379 15.171 18.7379 15.171 18.7379 15.1722C18.7379 15.1722 18.7379 15.1733 18.7379 15.1745C18.7379 15.1745 18.7379 15.1745 18.7379 15.1768C18.7379 15.1768 18.7379 15.1768 18.7379 15.178C18.7379 15.178 18.7379 15.178 18.7379 15.1792C18.7379 15.1792 18.7379 15.1792 18.7379 15.1803C18.7379 15.1803 18.7379 15.1803 18.7379 15.1815C18.7379 15.1815 18.7379 15.1815 18.7379 15.1827C18.7379 15.1827 18.7379 15.1827 18.7379 15.1838C18.7379 15.1838 18.7379 15.1838 18.7379 15.185C18.7379 15.185 18.7379 15.185 18.7379 15.1862C18.7379 15.1862 18.7379 15.1862 18.7379 15.1873C18.7379 15.1873 18.7379 15.1873 18.7379 15.1885C18.7379 15.1885 18.7379 15.1885 18.7379 15.1897C18.7379 15.1897 18.7379 15.1897 18.7379 15.192C18.7379 15.192 18.7379 15.1932 18.7379 15.1943C18.7379 15.1943 18.7379 15.1955 18.7379 15.1967V15.199C18.7379 15.199 18.7379 15.2002 18.7379 15.2013C18.7379 15.2013 18.7379 15.2025 18.7379 15.2037C18.7379 15.2037 18.7379 15.2048 18.7379 15.206C18.7379 15.206 18.7379 15.2072 18.7379 15.2083C18.7379 15.2083 18.7379 15.2095 18.7379 15.2107C18.7379 15.2107 18.7379 15.2118 18.7379 15.213C18.7379 15.213 18.7379 15.2142 18.7379 15.2153C18.7379 15.2177 18.7379 15.22 18.7379 15.2223C18.7379 15.2223 18.7379 15.2235 18.7379 15.2247C18.7379 15.2247 18.7379 15.2293 18.7379 15.2317C18.7379 15.2317 18.7379 15.2328 18.7379 15.234V15.2363C18.7379 15.2363 18.7379 15.2398 18.7379 15.241C18.7379 15.241 18.7379 15.2422 18.7379 15.2433V15.2457V15.248C18.7401 15.2818 18.7413 15.3168 18.7413 15.3518C18.7413 15.4066 18.7379 15.4626 18.7322 15.5198C18.7255 15.5909 18.7119 15.6668 18.7018 15.7274C18.7007 15.7367 18.6995 15.7461 18.6995 15.7542C18.6995 15.8032 18.7221 15.8487 18.7604 15.8779L18.783 15.8919C18.8044 15.9024 18.827 15.9082 18.8495 15.9082C18.8913 15.9082 18.9307 15.8907 18.9601 15.858C18.977 15.8394 18.9939 15.8196 19.0108 15.8009C19.224 15.5688 19.4405 15.4078 19.6706 15.3098C19.8397 15.2375 20.0089 15.2013 20.1815 15.2013C20.354 15.2013 20.5288 15.2375 20.7093 15.3086C20.8818 15.3763 21.0442 15.4696 21.2055 15.5921C21.2743 15.6446 21.3431 15.7029 21.4119 15.7671C21.4525 15.8056 21.4931 15.8476 21.5292 15.8849L21.5348 15.8907L21.5641 15.921L21.5811 15.9362C21.6059 15.9549 21.6363 15.9654 21.6668 15.9665C21.5235 15.6504 21.3431 15.3565 21.0882 15.1278C20.6055 14.6951 19.9965 14.512 19.3773 14.512" fill="url(#paint9_linear_402_3)"/>
<path opacity="0.4" d="M19.348 12.4544L19.321 12.4567C19.2567 12.4695 19.2071 12.5232 19.1992 12.5909C19.1935 12.6433 19.1935 12.6993 19.2003 12.7565C19.2025 12.7752 19.198 12.7926 19.1901 12.8066C19.4484 13.2032 20.0078 13.9054 20.857 14.1714C20.857 14.1714 22.1698 14.8818 21.8382 15.9117L21.8484 15.8837C21.951 15.5688 21.9724 15.2795 21.9127 14.9972C21.8529 14.7185 21.7164 14.4618 21.5055 14.2344C21.4243 14.1469 21.3341 14.0641 21.236 13.9894C21.1886 13.9533 21.1379 13.9194 21.086 13.8856C21.0217 13.8436 20.9552 13.804 20.8818 13.7655C20.6134 13.6232 20.3845 13.4797 20.1837 13.3257C20.1025 13.2639 20.0236 13.1986 19.9492 13.1321C19.7698 12.9699 19.6492 12.8311 19.5589 12.6842C19.5296 12.6375 19.5037 12.5862 19.4789 12.5372C19.4687 12.5162 19.4529 12.4987 19.4349 12.4847C19.4101 12.4649 19.3785 12.4544 19.3458 12.4544" fill="url(#paint10_linear_402_3)"/>
<path opacity="0.5" d="M17.6823 15.3238L17.9484 15.164L19.0672 13.6138C19.0672 13.6138 18.4548 13.4937 18.1593 13.3549C18.1593 13.3549 17.8526 14.8024 16.7191 16.012L17.1364 15.6924C17.3033 15.5711 17.4544 15.4673 17.6823 15.3238Z" fill="url(#paint11_linear_402_3)"/>
<defs>
<linearGradient id="paint0_linear_402_3" x1="4.90183" y1="1.46872" x2="15.7824" y2="19.6896" gradientUnits="userSpaceOnUse">
<stop stop-color="#18BAB6"/>
<stop offset="0.5" stop-color="#00ADEE"/>
<stop offset="1" stop-color="#0095C4"/>
</linearGradient>
<linearGradient id="paint1_linear_402_3" x1="14.768" y1="16.306" x2="5.59024" y2="0.936416" gradientUnits="userSpaceOnUse">
<stop stop-color="#FDFDFE" stop-opacity="0"/>
<stop offset="0.11" stop-color="#FDFDFE" stop-opacity="0.17"/>
<stop offset="0.3" stop-color="#FDFDFE" stop-opacity="0.42"/>
<stop offset="0.47" stop-color="#FDFDFE" stop-opacity="0.63"/>
<stop offset="0.64" stop-color="#FDFDFE" stop-opacity="0.79"/>
<stop offset="0.78" stop-color="#FDFDFE" stop-opacity="0.9"/>
<stop offset="0.91" stop-color="#FDFDFE" stop-opacity="0.97"/>
<stop offset="1" stop-color="#FDFDFE"/>
</linearGradient>
<linearGradient id="paint2_linear_402_3" x1="12.1932" y1="16.2092" x2="5.58026" y2="5.13543" gradientUnits="userSpaceOnUse">
<stop stop-color="#FDFDFE" stop-opacity="0"/>
<stop offset="0.11" stop-color="#FDFDFE" stop-opacity="0.17"/>
<stop offset="0.3" stop-color="#FDFDFE" stop-opacity="0.42"/>
<stop offset="0.47" stop-color="#FDFDFE" stop-opacity="0.63"/>
<stop offset="0.64" stop-color="#FDFDFE" stop-opacity="0.79"/>
<stop offset="0.78" stop-color="#FDFDFE" stop-opacity="0.9"/>
<stop offset="0.91" stop-color="#FDFDFE" stop-opacity="0.97"/>
<stop offset="1" stop-color="#FDFDFE"/>
</linearGradient>
<linearGradient id="paint3_linear_402_3" x1="11.326" y1="17.0315" x2="7.63472" y2="10.8509" gradientUnits="userSpaceOnUse">
<stop stop-color="#FDFDFE" stop-opacity="0"/>
<stop offset="0.11" stop-color="#FDFDFE" stop-opacity="0.17"/>
<stop offset="0.3" stop-color="#FDFDFE" stop-opacity="0.42"/>
<stop offset="0.47" stop-color="#FDFDFE" stop-opacity="0.63"/>
<stop offset="0.64" stop-color="#FDFDFE" stop-opacity="0.79"/>
<stop offset="0.78" stop-color="#FDFDFE" stop-opacity="0.9"/>
<stop offset="0.91" stop-color="#FDFDFE" stop-opacity="0.97"/>
<stop offset="1" stop-color="#FDFDFE"/>
</linearGradient>
<linearGradient id="paint4_linear_402_3" x1="11.4714" y1="18.3006" x2="9.17344" y2="14.4519" gradientUnits="userSpaceOnUse">
<stop stop-color="#FDFDFE" stop-opacity="0"/>
<stop offset="0.11" stop-color="#FDFDFE" stop-opacity="0.17"/>
<stop offset="0.3" stop-color="#FDFDFE" stop-opacity="0.42"/>
<stop offset="0.47" stop-color="#FDFDFE" stop-opacity="0.63"/>
<stop offset="0.64" stop-color="#FDFDFE" stop-opacity="0.79"/>
<stop offset="0.78" stop-color="#FDFDFE" stop-opacity="0.9"/>
<stop offset="0.91" stop-color="#FDFDFE" stop-opacity="0.97"/>
<stop offset="1" stop-color="#FDFDFE"/>
</linearGradient>
<linearGradient id="paint5_linear_402_3" x1="7.78127" y1="17.9448" x2="7.78127" y2="22.0694" gradientUnits="userSpaceOnUse">
<stop stop-color="#231F20"/>
<stop offset="0.03" stop-color="#231F20" stop-opacity="0.9"/>
<stop offset="0.22" stop-color="#231F20" stop-opacity="0.4"/>
<stop offset="0.42" stop-color="#231F20" stop-opacity="0.1"/>
<stop offset="0.65" stop-color="#231F20" stop-opacity="0"/>
</linearGradient>
<linearGradient id="paint6_linear_402_3" x1="12.2643" y1="17.5553" x2="12.2643" y2="19.6584" gradientUnits="userSpaceOnUse">
<stop stop-color="#231F20"/>
<stop offset="1" stop-color="#231F20" stop-opacity="0"/>
</linearGradient>
<linearGradient id="paint7_linear_402_3" x1="13.2455" y1="12.1056" x2="13.2455" y2="10.3862" gradientUnits="userSpaceOnUse">
<stop stop-color="#231F20"/>
<stop offset="0.03" stop-color="#231F20" stop-opacity="0.95"/>
<stop offset="0.51" stop-color="#231F20" stop-opacity="0.26"/>
<stop offset="0.81" stop-color="#231F20" stop-opacity="0"/>
</linearGradient>
<linearGradient id="paint8_linear_402_3" x1="16.8815" y1="13.3747" x2="16.8815" y2="9.21512" gradientUnits="userSpaceOnUse">
<stop stop-color="#231F20"/>
<stop offset="0.18" stop-color="#231F20" stop-opacity="0.48"/>
<stop offset="0.38" stop-color="#231F20" stop-opacity="0.12"/>
<stop offset="0.58" stop-color="#231F20" stop-opacity="0"/>
</linearGradient>
<linearGradient id="paint9_linear_402_3" x1="20.6247" y1="16.6524" x2="19.165" y2="14.207" gradientUnits="userSpaceOnUse">
<stop stop-color="#231F20"/>
<stop offset="1" stop-color="#231F20" stop-opacity="0"/>
</linearGradient>
<linearGradient id="paint10_linear_402_3" x1="21.7435" y1="15.9689" x2="19.5558" y2="12.3059" gradientUnits="userSpaceOnUse">
<stop stop-color="#FDFDFE" stop-opacity="0"/>
<stop offset="0.11" stop-color="#FDFDFE" stop-opacity="0.17"/>
<stop offset="0.3" stop-color="#FDFDFE" stop-opacity="0.42"/>
<stop offset="0.47" stop-color="#FDFDFE" stop-opacity="0.63"/>
<stop offset="0.64" stop-color="#FDFDFE" stop-opacity="0.79"/>
<stop offset="0.78" stop-color="#FDFDFE" stop-opacity="0.9"/>
<stop offset="0.91" stop-color="#FDFDFE" stop-opacity="0.97"/>
<stop offset="1" stop-color="#FDFDFE"/>
</linearGradient>
<linearGradient id="paint11_linear_402_3" x1="16.3413" y1="15.339" x2="19.4196" y2="13.6197" gradientUnits="userSpaceOnUse">
<stop stop-color="#231F20"/>
<stop offset="0.31" stop-color="#231F20" stop-opacity="0.5"/>
<stop offset="0.67" stop-color="#231F20" stop-opacity="0.13"/>
<stop offset="1" stop-color="#231F20" stop-opacity="0"/>
</linearGradient>
</defs>
</svg>
