<svg width="25" height="25" viewBox="0 0 25 25" fill="none" xmlns="http://www.w3.org/2000/svg">
<path d="M22.8399 15.4191C22.7784 15.1418 22.6379 14.8865 22.4209 14.6602C22.3373 14.5732 22.2445 14.4908 22.1435 14.4166C22.0948 14.3806 22.0426 14.3469 21.9892 14.3133C21.923 14.2715 21.8545 14.2321 21.7791 14.1938C21.5029 14.0522 21.2673 13.9095 21.0607 13.7563C20.9771 13.6948 20.8959 13.6298 20.8193 13.5637C20.6348 13.4024 20.5106 13.2643 20.4177 13.1181C20.3876 13.0717 20.3609 13.0206 20.3353 12.9719C20.3249 12.951 20.3086 12.9336 20.2901 12.9197C20.2564 12.8953 20.2135 12.8849 20.1705 12.8918C20.1044 12.9046 20.0533 12.958 20.0452 13.0253C20.0394 13.0775 20.0394 13.1332 20.0464 13.19C20.051 13.2237 20.0324 13.2562 20.0011 13.2701C19.9941 13.2736 19.986 13.2747 19.979 13.2759C19.9349 13.2805 19.8955 13.3049 19.8699 13.342C19.8444 13.3792 19.8374 13.4244 19.8479 13.4674C19.8572 13.5045 19.8699 13.5312 19.8804 13.5521L19.8897 13.5706C19.8966 13.5834 19.9036 13.5973 19.9106 13.6101C19.9315 13.6495 19.9523 13.689 19.9779 13.7261C20.0266 13.7969 20.0812 13.8677 20.1462 13.9431C20.1671 13.9675 20.1705 14.0023 20.1554 14.0301C20.1404 14.058 20.109 14.0742 20.0777 14.0696C19.7121 14.0197 19.3837 13.9373 19.0784 13.8248C19.0436 13.812 19.0076 13.7992 18.974 13.7853C18.7001 13.6693 19.1945 13.1773 19.4208 12.828C20.4131 11.3021 20.6185 9.55457 20.6266 7.78616C20.6348 6.07692 20.4502 4.3909 20.1102 2.72691V2.72459C19.8885 1.32982 19.7005 0.80649 19.5821 0.612707C19.5566 0.561651 19.5287 0.52916 19.4997 0.514075C19.4672 0.492028 19.4498 0.502472 19.4498 0.502472C19.386 0.504792 19.3129 0.561651 19.2247 0.653321C18.8544 1.04205 18.8753 1.50504 18.9775 1.98891C19.4452 4.18667 19.7968 6.39719 19.6367 8.65528C19.5264 10.2125 19.2363 11.7117 18.1476 12.9313C18.0826 13.0044 18.0118 13.0728 17.941 13.1425C17.8598 13.2225 17.7333 13.378 17.6393 13.313C17.514 13.226 17.6254 13.0473 17.6648 12.9545C18.302 11.4611 18.4854 9.90037 18.3879 8.29208C18.3856 8.25495 18.3821 8.21782 18.3797 8.18069V8.17837C18.3786 8.1482 18.3751 8.12035 18.3728 8.09134C18.3565 7.87783 18.3368 7.66664 18.3101 7.45545C18.0362 4.90378 17.7066 4.73785 17.7066 4.73785C17.6846 4.71812 17.6579 4.70304 17.6219 4.69607C17.449 4.6601 17.355 4.81211 17.2784 4.92699C16.9325 5.44452 17.0857 5.9957 17.1971 6.54107C17.5882 8.45105 17.594 10.3436 16.9232 12.2014C16.8617 12.3708 16.7886 12.5356 16.7108 12.698C16.6284 12.8709 16.575 13.0868 16.2942 12.9939C16.0307 12.9069 16.105 12.7073 16.1387 12.5251C16.2269 12.0621 16.2977 11.598 16.3418 11.1327V11.135C16.3476 11.0886 16.3499 11.0445 16.3534 11.0004C16.3603 10.9203 16.365 10.8391 16.3696 10.759C16.3731 10.6917 16.3766 10.6256 16.3801 10.5606C16.3812 10.527 16.3835 10.4945 16.3835 10.4608C16.4369 8.98599 16.1886 8.31529 16.0946 8.11687C16.0841 8.0925 16.0725 8.07045 16.0597 8.05072C15.9623 7.90452 15.8009 7.92192 15.6617 8.06001C15.4052 8.31297 15.2636 8.61235 15.3286 8.98947C15.5189 10.0872 15.4075 11.1745 15.2032 12.2559C15.1754 12.401 15.1104 12.6655 14.8005 12.5971C14.5893 12.5507 14.5405 12.4602 14.5289 12.2768C14.5312 12.1387 14.5289 12.0006 14.5243 11.8626C14.5243 11.8591 14.5243 11.8556 14.5243 11.8521C14.5243 11.8324 14.522 11.8127 14.522 11.7941C14.522 11.7837 14.5208 11.7744 14.5196 11.7651C14.5104 11.5771 14.4953 11.388 14.4721 11.1988C14.4697 11.1803 14.4663 11.1629 14.4639 11.1443C14.3456 10.0791 14.1912 9.97579 14.1912 9.97579C14.0925 9.84699 13.9382 9.86903 13.8047 10.0013C13.5482 10.2543 13.4182 10.5525 13.4716 10.9308C13.5111 11.207 13.5007 11.1222 13.5285 11.3636C13.5506 11.4878 13.5738 11.714 13.5761 11.786C13.5703 11.8498 13.554 11.9055 13.5146 11.9473C13.3834 12.0877 13.1722 11.9438 13.012 11.8776C9.90632 10.5931 7.24858 8.78988 4.92857 6.50858C4.01403 5.5768 2.46 3.69583 2.46 3.69583C2.40197 3.62853 2.33002 3.59023 2.21976 3.63781C2.01666 3.72484 2.02246 3.98476 2.00389 4.20291C1.96675 4.64038 2.20119 4.95716 2.45536 5.25422C5.95917 9.34106 10.2348 12.278 15.3959 13.747L16.3244 13.993C16.3348 13.9953 16.3464 13.9988 16.3568 14.0011C16.3592 14.0011 16.3615 14.0023 16.3615 14.0023L17.1611 14.2146L17.1832 14.2204C17.1565 14.2286 17.1275 14.2344 17.0961 14.2402C16.2164 14.4142 14.4755 14.094 13.077 13.7679C12.3853 13.6229 11.7052 13.4465 11.0402 13.2364C11.01 13.2272 10.9926 13.2225 10.9926 13.2225C8.40916 12.3998 6.04273 11.0665 3.97225 9.03356C3.77611 8.84094 3.59506 8.63323 3.41633 8.42321C3.25268 8.22826 2.91495 7.82097 2.79773 7.68056C2.78497 7.662 2.77104 7.64575 2.75711 7.63067C2.7223 7.5947 2.67935 7.57149 2.61784 7.58541C2.47393 7.61906 2.43215 7.76759 2.40546 7.89291C2.29984 8.39652 2.46 8.82006 2.79889 9.19834C4.91928 11.5748 7.5805 13.0926 10.569 14.0882C12.2658 14.6533 14.0113 14.9967 15.7916 15.2161C14.7297 15.5595 13.6376 15.664 12.5362 15.6361C10.4042 15.5827 8.40452 15.071 6.52553 14.1578C5.83266 13.8016 5.18738 13.4047 5.01793 13.2979C4.92044 13.2318 4.81947 13.1912 4.71966 13.2678C4.53281 13.4128 4.66163 13.667 4.72198 13.8654C4.83688 14.2471 5.10266 14.5105 5.44735 14.6927C8.50897 16.3114 11.7412 16.9589 15.1823 16.3846C15.5305 16.3265 15.8613 16.2627 16.2257 16.1397C15.6501 16.6375 14.9839 16.9624 14.284 17.2189C12.1288 18.0068 9.98756 17.9754 7.8544 17.4417C7.16966 17.2583 6.37582 16.9601 6.37582 16.9601C6.26092 16.9102 6.14718 16.8928 6.05898 17.0193C5.90346 17.2421 6.03925 17.473 6.17388 17.6842C6.49188 18.1797 7.10699 18.2284 7.59327 18.3966C7.75924 18.45 7.30661 18.7517 7.16153 18.8631C6.4559 19.4027 5.76535 19.8959 5.0632 20.418L4.6036 20.7569C4.52468 20.8114 4.45505 20.8729 4.49103 20.9866C4.53281 21.1154 4.66628 21.1386 4.79626 21.1653C5.29879 21.2697 5.72821 21.1026 6.12513 20.8056C6.97584 20.1685 7.8428 19.5501 8.67494 18.8886C8.99178 18.6368 9.2796 18.6577 9.7125 18.7691C8.62967 19.5849 7.61648 20.3496 6.60213 21.1131C5.57269 21.8871 4.54325 22.661 3.51381 23.4338L2.83371 23.9374C2.82327 23.9444 2.81398 23.9514 2.8047 23.9595L2.79425 23.9665C2.73622 24.0129 2.69328 24.0651 2.70605 24.1324C2.7339 24.2856 2.91379 24.3239 3.06119 24.3494C3.66933 24.4538 4.04652 24.2252 4.46201 23.9131C6.54294 22.3512 8.63083 20.7998 10.7002 19.2228C11.1644 18.8689 11.6414 18.6693 12.311 18.7448C11.7412 19.1706 11.1934 19.5802 10.6537 19.984L9.18676 21.069C9.17631 21.076 9.16586 21.0841 9.15658 21.0922C9.07882 21.1537 9.02427 21.2256 9.05445 21.3324C9.11016 21.5262 9.34343 21.5494 9.54189 21.5796C9.90632 21.6341 10.215 21.5053 10.5017 21.2918C10.6665 21.1688 10.8325 21.0481 10.9984 20.9286L13.2384 19.1497C13.2384 19.1497 13.7676 18.7714 14.3804 18.4245C14.4349 18.3908 14.4895 18.356 14.5452 18.3224C14.5684 18.3119 14.6264 18.2852 14.7146 18.2435C14.7808 18.2098 14.8469 18.1762 14.9119 18.1448C15.0083 18.0961 15.1197 18.0369 15.245 17.9685C15.606 17.8188 16.64 17.3361 17.4942 16.4263C17.9004 16.113 18.4726 15.7034 18.9183 15.5061H18.9206C18.9542 15.4911 18.9879 15.4771 19.0204 15.4655L19.0239 15.4644C19.0459 15.4563 19.0668 15.4493 19.0877 15.4423L19.1446 15.4203C19.3059 15.375 19.5682 15.3576 19.603 15.7127C19.6088 15.7997 19.6076 15.8891 19.5972 15.9831C19.5902 16.0538 19.5763 16.1293 19.5659 16.1896C19.5554 16.2476 19.5798 16.3056 19.6262 16.3405C19.6332 16.3463 19.6413 16.3509 19.6494 16.3544C19.7109 16.3846 19.7852 16.3706 19.8316 16.3196C19.8491 16.301 19.8665 16.2813 19.8839 16.2627C20.1032 16.0318 20.3261 15.8717 20.5628 15.7742C20.9087 15.6315 21.2592 15.6303 21.6317 15.773C21.8093 15.8403 21.9764 15.9332 22.1424 16.055C22.2132 16.1072 22.284 16.1652 22.3548 16.2291C22.3965 16.2674 22.4383 16.3091 22.4755 16.3463L22.4813 16.3521L22.5114 16.3822C22.5114 16.3822 22.523 16.3927 22.5288 16.3973C22.5637 16.4228 22.6089 16.4333 22.653 16.424C22.7041 16.4124 22.7459 16.3764 22.7644 16.3277C22.7679 16.3184 22.7714 16.3091 22.7749 16.2998C22.8805 15.9865 22.9026 15.6988 22.841 15.418L22.8399 15.4191Z" fill="white"/>
<path d="M22.8399 15.4191C22.7784 15.1418 22.6379 14.8865 22.4209 14.6602C22.3373 14.5732 22.2445 14.4908 22.1435 14.4166C22.0948 14.3806 22.0426 14.3469 21.9892 14.3133C21.923 14.2715 21.8545 14.2321 21.7791 14.1938C21.5029 14.0522 21.2673 13.9095 21.0607 13.7563C20.9771 13.6948 20.8959 13.6298 20.8193 13.5637C20.6348 13.4024 20.5106 13.2643 20.4177 13.1181C20.3876 13.0717 20.3609 13.0206 20.3353 12.9719C20.3249 12.951 20.3086 12.9336 20.2901 12.9197C20.2564 12.8953 20.2135 12.8849 20.1705 12.8918C20.1044 12.9046 20.0533 12.958 20.0452 13.0253C20.0394 13.0775 20.0394 13.1332 20.0464 13.19C20.051 13.2237 20.0324 13.2562 20.0011 13.2701C19.9941 13.2736 19.986 13.2747 19.979 13.2759C19.9349 13.2805 19.8955 13.3049 19.8699 13.342C19.8444 13.3792 19.8374 13.4244 19.8479 13.4674C19.8572 13.5045 19.8699 13.5312 19.8804 13.5521L19.8897 13.5706C19.8966 13.5834 19.9036 13.5973 19.9106 13.6101C19.9315 13.6495 19.9523 13.689 19.9779 13.7261C20.0266 13.7969 20.0812 13.8677 20.1462 13.9431C20.1671 13.9675 20.1705 14.0023 20.1554 14.0301C20.1404 14.058 20.109 14.0742 20.0777 14.0696C19.7121 14.0197 19.3837 13.9373 19.0784 13.8248C19.0436 13.812 19.0076 13.7992 18.974 13.7853C18.7001 13.6693 19.1945 13.1773 19.4208 12.828C20.4131 11.3021 20.6185 9.55457 20.6266 7.78616C20.6348 6.07692 20.4502 4.3909 20.1102 2.72691V2.72459C19.8885 1.32982 19.7005 0.80649 19.5821 0.612707C19.5566 0.561651 19.5287 0.52916 19.4997 0.514075C19.4672 0.492028 19.4498 0.502472 19.4498 0.502472C19.386 0.504792 19.3129 0.561651 19.2247 0.653321C18.8544 1.04205 18.8753 1.50504 18.9775 1.98891C19.4452 4.18667 19.7968 6.39719 19.6367 8.65528C19.5264 10.2125 19.2363 11.7117 18.1476 12.9313C18.0826 13.0044 18.0118 13.0728 17.941 13.1425C17.8598 13.2225 17.7333 13.378 17.6393 13.313C17.514 13.226 17.6254 13.0473 17.6648 12.9545C18.302 11.4611 18.4854 9.90037 18.3879 8.29208C18.3856 8.25495 18.3821 8.21782 18.3797 8.18069V8.17837C18.3786 8.1482 18.3751 8.12035 18.3728 8.09134C18.3565 7.87783 18.3368 7.66664 18.3101 7.45545C18.0362 4.90378 17.7066 4.73785 17.7066 4.73785C17.6846 4.71812 17.6579 4.70304 17.6219 4.69607C17.449 4.6601 17.355 4.81211 17.2784 4.92699C16.9325 5.44452 17.0857 5.9957 17.1971 6.54107C17.5882 8.45105 17.594 10.3436 16.9232 12.2014C16.8617 12.3708 16.7886 12.5356 16.7108 12.698C16.6284 12.8709 16.575 13.0868 16.2942 12.9939C16.0307 12.9069 16.105 12.7073 16.1387 12.5251C16.2269 12.0621 16.2977 11.598 16.3418 11.1327V11.135C16.3476 11.0886 16.3499 11.0445 16.3534 11.0004C16.3603 10.9203 16.365 10.8391 16.3696 10.759C16.3731 10.6917 16.3766 10.6256 16.3801 10.5606C16.3812 10.527 16.3835 10.4945 16.3835 10.4608C16.4369 8.98599 16.1886 8.31529 16.0946 8.11687C16.0841 8.0925 16.0725 8.07045 16.0597 8.05072C15.9623 7.90452 15.8009 7.92192 15.6617 8.06001C15.4052 8.31297 15.2636 8.61235 15.3286 8.98947C15.5189 10.0872 15.4075 11.1745 15.2032 12.2559C15.1754 12.401 15.1104 12.6655 14.8005 12.5971C14.5893 12.5507 14.5405 12.4602 14.5289 12.2768C14.5312 12.1387 14.5289 12.0006 14.5243 11.8626C14.5243 11.8591 14.5243 11.8556 14.5243 11.8521C14.5243 11.8324 14.522 11.8127 14.522 11.7941C14.522 11.7837 14.5208 11.7744 14.5196 11.7651C14.5104 11.5771 14.4953 11.388 14.4721 11.1988C14.4697 11.1803 14.4663 11.1629 14.4639 11.1443C14.3456 10.0791 14.1912 9.97579 14.1912 9.97579C14.0925 9.84699 13.9382 9.86903 13.8047 10.0013C13.5482 10.2543 13.4182 10.5525 13.4716 10.9308C13.5111 11.207 13.5007 11.1222 13.5285 11.3636C13.5506 11.4878 13.5738 11.714 13.5761 11.786C13.5703 11.8498 13.554 11.9055 13.5146 11.9473C13.3834 12.0877 13.1722 11.9438 13.012 11.8776C9.90632 10.5931 7.24858 8.78988 4.92857 6.50858C4.01403 5.5768 2.46 3.69583 2.46 3.69583C2.40197 3.62853 2.33002 3.59023 2.21976 3.63781C2.01666 3.72484 2.02246 3.98476 2.00389 4.20291C1.96675 4.64038 2.20119 4.95716 2.45536 5.25422C5.95917 9.34106 10.2348 12.278 15.3959 13.747L16.3244 13.993C16.3348 13.9953 16.3464 13.9988 16.3568 14.0011C16.3592 14.0011 16.3615 14.0023 16.3615 14.0023L17.1611 14.2146L17.1832 14.2204C17.1565 14.2286 17.1275 14.2344 17.0961 14.2402C16.2164 14.4142 14.4755 14.094 13.077 13.7679C12.3853 13.6229 11.7052 13.4465 11.0402 13.2364C11.01 13.2272 10.9926 13.2225 10.9926 13.2225C8.40916 12.3998 6.04273 11.0665 3.97225 9.03356C3.77611 8.84094 3.59506 8.63323 3.41633 8.42321C3.25268 8.22826 2.91495 7.82097 2.79773 7.68056C2.78497 7.662 2.77104 7.64575 2.75711 7.63067C2.7223 7.5947 2.67935 7.57149 2.61784 7.58541C2.47393 7.61906 2.43215 7.76759 2.40546 7.89291C2.29984 8.39652 2.46 8.82006 2.79889 9.19834C4.91928 11.5748 7.5805 13.0926 10.569 14.0882C12.2658 14.6533 14.0113 14.9967 15.7916 15.2161C14.7297 15.5595 13.6376 15.664 12.5362 15.6361C10.4042 15.5827 8.40452 15.071 6.52553 14.1578C5.83266 13.8016 5.18738 13.4047 5.01793 13.2979C4.92044 13.2318 4.81947 13.1912 4.71966 13.2678C4.53281 13.4128 4.66163 13.667 4.72198 13.8654C4.83688 14.2471 5.10266 14.5105 5.44735 14.6927C8.50897 16.3114 11.7412 16.9589 15.1823 16.3846C15.5305 16.3265 15.8613 16.2627 16.2257 16.1397C15.6501 16.6375 14.9839 16.9624 14.284 17.2189C12.1288 18.0068 9.98756 17.9754 7.8544 17.4417C7.16966 17.2583 6.37582 16.9601 6.37582 16.9601C6.26092 16.9102 6.14718 16.8928 6.05898 17.0193C5.90346 17.2421 6.03925 17.473 6.17388 17.6842C6.49188 18.1797 7.10699 18.2284 7.59327 18.3966C7.75924 18.45 7.30661 18.7517 7.16153 18.8631C6.4559 19.4027 5.76535 19.8959 5.0632 20.418L4.6036 20.7569C4.52468 20.8114 4.45505 20.8729 4.49103 20.9866C4.53281 21.1154 4.66628 21.1386 4.79626 21.1653C5.29879 21.2697 5.72821 21.1026 6.12513 20.8056C6.97584 20.1685 7.8428 19.5501 8.67494 18.8886C8.99178 18.6368 9.2796 18.6577 9.7125 18.7691C8.62967 19.5849 7.61648 20.3496 6.60213 21.1131C5.57269 21.8871 4.54325 22.661 3.51381 23.4338L2.83371 23.9374C2.82327 23.9444 2.81398 23.9514 2.8047 23.9595L2.79425 23.9665C2.73622 24.0129 2.69328 24.0651 2.70605 24.1324C2.7339 24.2856 2.91379 24.3239 3.06119 24.3494C3.66933 24.4538 4.04652 24.2252 4.46201 23.9131C6.54294 22.3512 8.63083 20.7998 10.7002 19.2228C11.1644 18.8689 11.6414 18.6693 12.311 18.7448C11.7412 19.1706 11.1934 19.5802 10.6537 19.984L9.18676 21.069C9.17631 21.076 9.16586 21.0841 9.15658 21.0922C9.07882 21.1537 9.02427 21.2256 9.05445 21.3324C9.11016 21.5262 9.34343 21.5494 9.54189 21.5796C9.90632 21.6341 10.215 21.5053 10.5017 21.2918C10.6665 21.1688 10.8325 21.0481 10.9984 20.9286L13.2384 19.1497C13.2384 19.1497 13.7676 18.7714 14.3804 18.4245C14.4349 18.3908 14.4895 18.356 14.5452 18.3224C14.5684 18.3119 14.6264 18.2852 14.7146 18.2435C14.7808 18.2098 14.8469 18.1762 14.9119 18.1448C15.0083 18.0961 15.1197 18.0369 15.245 17.9685C15.606 17.8188 16.64 17.3361 17.4942 16.4263C17.9004 16.113 18.4726 15.7034 18.9183 15.5061H18.9206C18.9542 15.4911 18.9879 15.4771 19.0204 15.4655L19.0239 15.4644C19.0459 15.4563 19.0668 15.4493 19.0877 15.4423L19.1446 15.4203C19.3059 15.375 19.5682 15.3576 19.603 15.7127C19.6088 15.7997 19.6076 15.8891 19.5972 15.9831C19.5902 16.0538 19.5763 16.1293 19.5659 16.1896C19.5554 16.2476 19.5798 16.3056 19.6262 16.3405C19.6332 16.3463 19.6413 16.3509 19.6494 16.3544C19.7109 16.3846 19.7852 16.3706 19.8316 16.3196C19.8491 16.301 19.8665 16.2813 19.8839 16.2627C20.1032 16.0318 20.3261 15.8717 20.5628 15.7742C20.9087 15.6315 21.2592 15.6303 21.6317 15.773C21.8093 15.8403 21.9764 15.9332 22.1424 16.055C22.2132 16.1072 22.284 16.1652 22.3548 16.2291C22.3965 16.2674 22.4383 16.3091 22.4755 16.3463L22.4813 16.3521L22.5114 16.3822C22.5114 16.3822 22.523 16.3927 22.5288 16.3973C22.5637 16.4228 22.6089 16.4333 22.653 16.424C22.7041 16.4124 22.7459 16.3764 22.7644 16.3277C22.7679 16.3184 22.7714 16.3091 22.7749 16.2998C22.8805 15.9865 22.9026 15.6988 22.841 15.418L22.8399 15.4191Z" fill="white"/>
</svg>
