<?xml version="1.0" encoding="UTF-8"?>
<svg id="Layer_2" data-name="Layer 2" xmlns="http://www.w3.org/2000/svg" viewBox="0 0 700.64 270.53">
  <defs>
    <style>
      .cls-1 {
        opacity: .4;
      }

      .cls-1, .cls-2, .cls-3 {
        fill: #231f20;
        stroke-width: 0px;
      }

      .cls-2 {
        opacity: .5;
      }
    </style>
  </defs>
  <g id="Layer_16" data-name="Layer 16">
    <g>
      <path class="cls-3" d="M208.23,149.15c-.61-2.77-2.02-5.32-4.19-7.59-.83-.87-1.77-1.69-2.77-2.44-.49-.36-1.01-.7-1.54-1.04-.66-.41-1.35-.81-2.1-1.19-2.76-1.42-5.11-2.84-7.18-4.37-.84-.62-1.65-1.27-2.41-1.93-1.85-1.62-3.09-2.99-4.01-4.45-.3-.47-.57-.98-.82-1.46-.11-.21-.27-.39-.45-.52-.33-.25-.76-.35-1.19-.27-.66.12-1.17.66-1.25,1.33-.06.52-.06,1.07.01,1.64.04.34-.14.66-.45.8-.07.03-.15.05-.23.06-.44.05-.84.29-1.09.66-.25.37-.33.82-.23,1.25.1.37.22.64.33.85l.1.19c.07.13.14.27.21.4.2.39.42.78.68,1.16.48.71,1.03,1.41,1.68,2.16.2.24.24.59.09.87-.15.28-.47.43-.78.39-3.66-.5-6.93-1.32-9.99-2.45-.35-.13-.7-.25-1.05-.39-2.74-1.15,2.2-6.08,4.47-9.57,9.92-15.25,11.97-32.73,12.06-50.4.08-17.09-1.77-33.94-5.16-50.58v-.02c-2.22-13.94-4.1-19.17-5.28-21.11-.25-.52-.53-.83-.83-.99-.32-.22-.5-.12-.5-.12-.63.02-1.37.59-2.25,1.51-3.7,3.89-3.49,8.52-2.47,13.35,4.67,21.97,8.19,44.07,6.59,66.64-1.1,15.56-4,30.56-14.88,42.74-.65.73-1.36,1.42-2.06,2.11-.82.8-2.08,2.36-3.01,1.71-1.26-.87-.14-2.66.25-3.58,6.37-14.93,8.21-30.53,7.23-46.61-.02-.37-.06-.74-.09-1.11v-.02c-.01-.3-.04-.58-.07-.88-.16-2.13-.36-4.25-.62-6.36-2.74-25.51-6.03-27.16-6.03-27.16h0c-.22-.19-.49-.35-.85-.42-1.73-.36-2.67,1.16-3.44,2.31-3.45,5.18-1.93,10.68-.81,16.14,3.91,19.09,3.97,38.01-2.74,56.59-.61,1.69-1.35,3.34-2.12,4.96-.82,1.73-1.36,3.89-4.17,2.96-2.63-.87-1.89-2.87-1.55-4.69.88-4.63,1.59-9.27,2.03-13.92v.03c.05-.46.09-.9.12-1.35.07-.8.12-1.61.17-2.41.04-.68.07-1.34.1-1.99.01-.33.03-.66.04-.99.53-14.75-1.94-21.45-2.88-23.43-.1-.25-.22-.47-.35-.66h0s0,0,0,0c-.98-1.46-2.59-1.29-3.98.09-2.57,2.53-3.98,5.53-3.33,9.29,1.91,10.97.79,21.84-1.26,32.65-.28,1.45-.93,4.09-4.02,3.41-2.11-.46-2.6-1.37-2.72-3.2.02-1.38,0-2.76-.04-4.14,0-.03,0-.07,0-.1h0c0-.19-.02-.39-.03-.59h0c0-.11-.01-.19-.02-.29-.09-1.88-.24-3.77-.48-5.66-.02-.19-.05-.36-.08-.54-1.19-10.65-2.72-11.68-2.72-11.68-.99-1.28-2.53-1.07-3.87.26-2.57,2.53-3.86,5.51-3.33,9.29.39,2.77.29,1.91.57,4.32.22,1.24.45,3.5.47,4.22-.06.64-.22,1.2-.61,1.62-1.31,1.41-3.42-.03-5.02-.69-31.04-12.84-57.6-30.87-80.79-53.67C20.12,50.77,4.59,31.97,4.59,31.97h0c-.58-.67-1.3-1.06-2.4-.58-2.03.87-1.97,3.47-2.15,5.65-.37,4.37,1.97,7.54,4.51,10.51,35.02,40.86,77.76,70.21,129.34,84.89l9.28,2.46c.11.03.22.06.33.08.02,0,.03.01.05.02l7.99,2.12.22.06c-.26.08-.56.14-.87.19-8.8,1.74-26.19-1.46-40.17-4.72-6.92-1.45-13.71-3.21-20.35-5.31-.3-.09-.47-.14-.47-.14h0c-25.82-8.23-49.48-21.55-70.16-41.87-1.96-1.93-3.77-4-5.56-6.1-1.64-1.95-5.02-6.02-6.18-7.43-.13-.18-.27-.35-.41-.5h0s0,0,0,0c-.35-.36-.78-.59-1.39-.45-1.44.33-1.86,1.82-2.12,3.08-1.05,5.04.55,9.26,3.93,13.05,21.2,23.75,47.79,38.93,77.66,48.88,16.96,5.65,34.4,9.08,52.2,11.28-10.61,3.44-21.53,4.48-32.53,4.2-21.31-.53-41.29-5.65-60.08-14.78-6.93-3.56-13.37-7.53-15.07-8.59-.97-.66-1.98-1.07-2.98-.3-1.87,1.45-.58,3.99.02,5.97,1.15,3.82,3.8,6.45,7.25,8.27,30.6,16.18,62.9,22.65,97.3,16.91,3.49-.58,6.79-1.22,10.43-2.45-5.75,4.98-12.41,8.22-19.41,10.78-21.54,7.88-42.94,7.56-64.26,2.23-6.84-1.83-14.78-4.81-14.78-4.81h0c-1.15-.5-2.28-.67-3.16.59-1.56,2.23-.2,4.54,1.15,6.64,3.18,4.95,9.33,5.44,14.19,7.12,1.66.53-2.86,3.55-4.32,4.66-7.05,5.39-13.95,10.32-20.97,15.54l-4.6,3.39h0c-.79.54-1.49,1.15-1.12,2.3.41,1.28,1.75,1.51,3.05,1.79,5.02,1.04,9.32-.63,13.28-3.59,8.51-6.37,17.17-12.55,25.49-19.16,3.16-2.52,6.04-2.31,10.37-1.19-10.82,8.16-20.95,15.79-31.09,23.43-10.28,7.74-20.58,15.47-30.87,23.2l-6.8,5.03c-.1.07-.19.14-.29.22l-.1.07h0c-.58.46-1.01.98-.88,1.66.27,1.53,2.08,1.91,3.55,2.17,6.08,1.05,9.84-1.24,14-4.36,20.8-15.61,41.67-31.12,62.34-46.88,4.64-3.53,9.4-5.53,16.1-4.78-5.7,4.26-11.17,8.35-16.57,12.38l-14.66,10.85c-.11.07-.21.15-.31.23h-.01c-.77.61-1.32,1.34-1.02,2.4.56,1.94,2.89,2.17,4.87,2.47,3.64.55,6.73-.75,9.59-2.87,1.64-1.22,3.3-2.43,4.96-3.64h0s22.39-17.78,22.39-17.78c0,0,5.29-3.78,11.41-7.25.55-.34,1.1-.68,1.64-1.01.23-.11.82-.37,1.69-.79.66-.34,1.32-.67,1.97-.98.96-.49,2.08-1.08,3.33-1.77,3.61-1.5,13.94-6.32,22.49-15.42,4.07-3.14,9.78-7.23,14.23-9.2h0s.03-.01.03-.01c.34-.15.67-.29,1-.41h0s.02,0,.04-.01c.22-.08.43-.15.64-.22l.57-.22c1.61-.46,4.24-.63,4.58,2.92.06.87.04,1.77-.05,2.71-.07.71-.21,1.46-.31,2.06-.11.58.13,1.16.6,1.51.07.05.15.1.23.14.62.3,1.36.16,1.82-.35.17-.19.35-.38.53-.57,2.19-2.31,4.41-3.9,6.78-4.88,3.46-1.43,6.96-1.44,10.69-.02,1.77.68,3.44,1.6,5.1,2.82.7.52,1.42,1.1,2.12,1.74.42.38.83.8,1.2,1.17l.06.06.3.3c.06.06.12.11.17.15.35.26.8.36,1.24.27.51-.11.93-.47,1.11-.96.04-.09.07-.19.1-.28,1.06-3.13,1.28-6.01.66-8.82Z"/>
      <path class="cls-3" d="M142.1,115.56c-.25,1.55-.52,3.1-.81,4.65.29-1.55.56-3.1.81-4.65h0Z"/>
      <path class="cls-3" d="M169.62,132.82c.11.05.23.09.34.13-.11-.04-.23-.09-.34-.13"/>
      <polyline class="cls-3" points="156.63 124.33 156.62 124.33 156.63 124.33"/>
      <polyline class="cls-3" points="157.06 123.27 157.06 123.28 157.06 123.27"/>
      <path class="cls-3" d="M157.15,123.06s-.02.04-.03.07c0-.02.02-.05.03-.07"/>
      <path class="cls-3" d="M174.23,123.03s-.04.06-.05.09c.02-.03.04-.06.05-.09"/>
      <path class="cls-3" d="M147.01,121.94c-.19.4-.37.83-.56,1.24.19-.41.37-.83.56-1.24"/>
      <polyline class="cls-3" points="128.54 121.03 128.55 121.03 128.54 121.03"/>
      <polyline class="cls-3" points="125.77 119.78 125.77 119.78 125.77 119.78"/>
      <polyline class="cls-3" points="125.76 119.76 125.76 119.76 125.76 119.76"/>
      <polyline class="cls-3" points="125.74 119.74 125.75 119.75 125.74 119.74"/>
      <polyline class="cls-3" points="125.73 119.72 125.74 119.73 125.73 119.72"/>
      <path class="cls-3" d="M125.72,119.7s.01.01.01.02c0,0-.01-.02-.01-.02"/>
      <path class="cls-3" d="M125.21,117.76s0,0,0,.01c0,0,0,0,0-.01"/>
      <path class="cls-3" d="M132.12,116.58c-.06.31-.12.62-.17.93.06-.31.12-.62.17-.93"/>
      <path class="cls-3" d="M115.08,114.44c-.21.22-.43.37-.67.47.24-.09.47-.25.67-.47"/>
      <path class="cls-3" d="M125.77,119.78c.17.24.39.44.68.61h0c-.28-.17-.5-.38-.68-.61M125.76,119.76s0,.01,0,.01c0,0,0,0,0-.01M125.75,119.75h.01s0,0-.01,0M125.74,119.73s0,0,0,0c0,0,0,0,0,0M125.73,119.72s0,0,0,0c0,0,0,0,0,0M125.71,119.7s0,0,0,0c0,0,0,0,0,0M125.21,117.77s0,0,0,.01c0,0,0,0,0-.01M125.21,117.74h0s0,.02,0,.02c0,0,0-.02,0-.02M111.75,114.52s.02,0,.03.01c.64.28,1.3.5,1.9.5.25,0,.5-.04.72-.13-.23.09-.47.13-.72.13-.61,0-1.27-.23-1.93-.51M125.12,112.5s0,.01,0,.02c0,0,0-.01,0-.02"/>
      <path class="cls-3" d="M169.96,132.95c.06.02.11.04.16.06h0c-.05-.02-.11-.04-.16-.06M157.59,127.96s0,0,0,0c0,0,0,0,0,0M155.72,126.95c0,.44.15.84.58,1.13.16.11.32.15.49.15.26,0,.53-.11.8-.28-.27.17-.54.28-.8.28-.17,0-.33-.05-.49-.15-.43-.3-.58-.7-.58-1.13M156.62,124.33c-.02.06-.05.12-.07.17.02-.06.05-.12.07-.17M157.06,123.28c-.14.35-.29.7-.44,1.04.15-.35.29-.7.44-1.04M157.13,123.13s-.04.1-.06.15c.02-.05.04-.1.06-.15M174.18,123.12s-.01.02-.02.02c0,0,.01-.02.02-.02M174.25,123.01s-.01.02-.02.02c0,0,.01-.02.02-.02M157.18,123s-.02.04-.02.06c0-.02.02-.04.02-.06M140.92,122.53c0,1,.4,1.87,1.91,2.37.47.15.87.22,1.22.22,1.28,0,1.89-.9,2.38-1.94-.5,1.04-1.11,1.94-2.38,1.94-.35,0-.76-.07-1.22-.22-1.51-.5-1.91-1.37-1.91-2.37M128.53,121.03h0,0M131,120.01c-.46.6-1.13,1.03-2.14,1.03-.1,0-.21,0-.31-.01.11,0,.21.01.31.01,1.01,0,1.68-.43,2.14-1.03M150.6,112.55s-.01,0-.02,0c-.45,1.48-.92,2.95-1.45,4.43-.61,1.69-1.35,3.34-2.12,4.96h0c.77-1.62,1.51-3.27,2.12-4.96.53-1.47,1.02-2.95,1.47-4.43M132.94,111.73c-.25,1.62-.52,3.24-.82,4.86.3-1.62.57-3.24.82-4.86h0M172.54,103.96s0,0,0,0c-2.22,7.29-5.67,14.15-11.16,20.3-.65.73-1.36,1.42-2.06,2.11h0c.7-.69,1.4-1.38,2.06-2.11,5.49-6.15,8.95-13.01,11.17-20.3"/>
      <path class="cls-1" d="M3.11,31.18c-.28,0-.58.06-.92.21-1.44.62-1.83,2.12-2,3.71,7.72,10.13,38.23,47.46,86.22,73.07,0,0,46.98,24.81,94.25,27.48-3.66-.5-6.93-1.32-9.99-2.45-.18-.07-.36-.13-.54-.2h0c-17.17-3.71-31.81-8.35-42.16-12.07.2.04.39.07.57.09-.19-.02-.39-.05-.6-.09-.62-.14-1.11-.31-1.48-.54-8.19-2.99-13.4-5.29-14.67-5.86-.6-.26-1.19-.57-1.73-.79-31.04-12.84-57.6-30.87-80.79-53.67C20.12,50.77,4.59,31.97,4.59,31.97h0c-.4-.47-.87-.79-1.49-.79"/>
      <path class="cls-1" d="M6.53,70.82c-.11,0-.22.01-.35.04-1.44.33-1.86,1.82-2.12,3.08-.05.23-.09.45-.13.67,23.99,32.5,56.19,45.78,56.19,45.78,32.14,15.14,58.52,18.2,74.59,18.2,6.65,0,11.53-.52,14.32-.93-1.28.14-2.68.21-4.19.21-9.41,0-22.88-2.58-34.13-5.21-6.92-1.45-13.71-3.21-20.35-5.31-.3-.09-.47-.14-.47-.14h0c-25.82-8.23-49.48-21.55-70.16-41.87-1.96-1.93-3.77-4-5.56-6.1-1.64-1.95-5.02-6.02-6.18-7.43-.13-.18-.27-.35-.41-.5h0s0,0,0,0c-.28-.29-.61-.49-1.04-.49"/>
      <path class="cls-1" d="M28.34,127.26c-.38,0-.77.12-1.15.42-1.63,1.26-.86,3.35-.24,5.18,12.02,7.3,39.61,21.5,72.28,21.5,12.34,0,25.39-2.02,38.62-7.2-9.54,3.09-19.34,4.25-29.23,4.25-1.1,0-2.2-.01-3.31-.04-21.31-.53-41.29-5.65-60.08-14.78-6.93-3.56-13.37-7.53-15.07-8.59-.6-.41-1.21-.72-1.82-.72"/>
      <path class="cls-1" d="M140.05,158.12c-5.24,4.02-11.12,6.8-17.28,9.05-11.55,4.23-23.07,6.09-34.55,6.09-9.93,0-19.82-1.39-29.71-3.87-6.84-1.83-14.78-4.81-14.78-4.81h0c-.5-.22-1-.37-1.48-.37-.61,0-1.19.26-1.69.97-.72,1.04-.82,2.09-.58,3.13,7.59,3.53,23.86,9.79,43.71,9.79,17.21,0,37.1-4.71,56.35-19.99"/>
      <path class="cls-1" d="M88.87,182.73c-18.64,0-32.73-3.77-34.51-4.27.52.15,1.04.31,1.54.49,1.66.53-2.86,3.55-4.32,4.66-5.21,3.99-10.34,7.72-15.5,11.51h15.82c4.99-3.68,9.95-7.39,14.81-11.25,1.8-1.44,3.51-1.98,5.45-1.98,1.46,0,3.06.31,4.92.8-10.82,8.16-20.95,15.79-31.09,23.43-5.93,4.46-11.86,8.91-17.79,13.37h15.91c14.31-10.71,28.62-21.42,42.83-32.26,3.28-2.5,6.62-4.23,10.66-4.76-2.99.2-5.91.28-8.72.28Z"/>
      <path class="cls-1" d="M85.54,195.5h15.38l11.36-9.02s5.29-3.78,11.41-7.25c.55-.34,1.1-.68,1.64-1.01.23-.11.82-.37,1.69-.79.66-.34,1.32-.67,1.97-.98,1-.51,2.17-1.13,3.47-1.85-10.97,4.59-22.19,6.83-32.58,7.7.14,0,.28,0,.43,0,.87,0,1.78.05,2.72.16-5.7,4.26-11.17,8.35-16.57,12.38l-.92.68Z"/>
      <path class="cls-1" d="M125.21,117.74c.02-1.38,0-2.76-.04-4.14v-.1s0,0,0,0c0-.19-.02-.39-.03-.59h0s-.02-.29-.02-.29c-.06-1.16-.15-2.33-.25-3.49-3.67-1.54-7.12-3.51-10.31-5.84.02.33.04.65.08,1,.39,2.77.29,1.91.57,4.32.22,1.24.45,3.5.47,4.22-.06.64-.22,1.2-.61,1.62-.4.43-.88.6-1.4.6-.61,0-1.27-.23-1.93-.51,1.21.55,6.45,2.86,14.69,5.87-.89-.54-1.15-1.37-1.24-2.66Z"/>
      <path class="cls-1" d="M185.02,91.64c-3.43,4.78-7.66,8.96-12.49,12.33-2.22,7.29-5.67,14.15-11.16,20.3-.65.73-1.36,1.42-2.06,2.11-.68.66-1.67,1.86-2.52,1.86-.17,0-.33-.05-.49-.15-1.26-.87-.14-2.66.25-3.58,2.06-4.82,3.63-9.7,4.8-14.65-3.44,1.29-7.04,2.2-10.77,2.7-.45,1.48-.92,2.95-1.45,4.43-.61,1.69-1.35,3.34-2.12,4.96-.68,1.44-1.17,3.18-2.95,3.18-.35,0-.76-.07-1.22-.22-2.63-.87-1.89-2.87-1.55-4.69.46-2.41.87-4.83,1.22-7.25-3.27-.1-6.47-.52-9.56-1.24-.29,1.93-.63,3.86-.99,5.79-.25,1.29-.79,3.52-3.09,3.52-.28,0-.58-.03-.91-.1,10.35,3.72,24.99,8.36,42.16,12.08h0c-.17-.07-.34-.13-.5-.2-2.74-1.15,2.2-6.08,4.47-9.57,6.37-9.8,9.49-20.51,10.93-31.61Z"/>
      <path class="cls-2" d="M182.45,144.78c-2.15,0-4.31.21-6.44.6-.4.07-.8.11-1.17.11-.6,0-1.17-.09-1.7-.25.09.11.17.21.25.32.93,1.29,1.42,2.71,1.61,4.19.23.25.43.57.59.98h0s0,.01,0,.02c0,0,0,0,0,0,0,0,0,.01,0,.02,0,0,0,0,0,0,0,0,0,.01,0,.01,0,0,0,0,0,0,0,0,0,0,0,.01,0,0,0,0,0,0,0,0,0,0,0,.01,0,0,0,0,0,0,0,0,0,0,0,.01,0,0,0,0,0,0,0,0,0,0,0,.01,0,0,0,0,0,0,0,0,0,0,0,.01,0,0,0,0,0,0,0,0,0,0,0,.01,0,0,0,0,0,0,0,0,0,0,0,.01,0,0,0,0,0,0,0,0,0,0,0,0h0s0,.02,0,.02c0,0,0,0,0,.01,0,0,0,0,0,0,0,0,0,0,0,.01,0,0,0,0,0,0,0,0,0,0,0,.01,0,0,0,0,0,0,0,0,0,.01,0,.02,0,0,0,0,0,0,0,0,0,0,0,.02,0,0,0,0,0,0,0,0,0,.01,0,.02,0,0,0,0,0,0,0,0,0,0,0,.01t0,0s0,.01,0,.02c0,0,0,0,0,0,0,0,0,.01,0,.02,0,0,0,0,0,0,0,0,0,.01,0,.01,0,0,0,0,0,0,0,0,0,0,0,.01,0,0,0,0,0,.01,0,0,0,0,0,0,0,0,0,0,0,0,0,0,0,0,0,.01,0,0,0,0,0,0,0,0,0,0,0,.01s0,0,0,.01c0,0,0,0,0,0,0,0,0,.01,0,.01,0,0,0,0,0,0,0,0,0,0,0,.01,0,0,0,0,0,.01s0,0,0,.01c0,0,0,0,0,.01,0,0,0,0,0,.01,0,0,0,0,0,0,0,0,0,.01,0,.02,0,0,0,0,0,0,0,0,0,.01,0,.02,0,0,0,0,0,0,0,0,0,0,0,.01,0,0,0,0,0,0,0,0,0,0,0,.01,0,0,0,0,0,0,0,0,0,.01,0,.02,0,0,0,0,0,0,0,0,0,.01,0,.02,0,0,0,0,0,0,0,0,0,.01,0,.02,0,0,0,0,0,0,0,0,0,.01,0,.02,0,0,0,0,0,0,0,0,0,.01,0,.02,0,0,0,0,0,0,0,0,0,.01,0,.02h0s0,.02,0,.02h0s0,.01,0,.02h0s0,.02,0,.02h0s0,.02,0,.02h0s0,.02,0,.02h0s0,.02,0,.02h0s0,.02,0,.02h0s0,.02,0,.02c0,0,0,0,0,0,0,.02,0,.05.01.07h0s0,.02,0,.02h0s0,.05,0,.07h0s0,.02,0,.02h0s0,.02,0,.03h0s0,.03,0,.05h0s0,.02,0,.02h0s0,.02,0,.03h0s0,.02,0,.03h0c.02.34.04.68.04,1.03,0,.54-.03,1.1-.09,1.67-.07.71-.21,1.46-.31,2.06-.02.09-.02.18-.02.27,0,.49.23.94.63,1.23l.23.14c.22.11.45.16.68.16.42,0,.84-.18,1.14-.5.17-.19.35-.38.53-.57,2.19-2.31,4.41-3.9,6.78-4.88,1.73-.72,3.48-1.08,5.26-1.08s3.57.35,5.43,1.06c1.77.68,3.44,1.6,5.1,2.82.7.52,1.42,1.1,2.12,1.74.42.38.83.8,1.2,1.17l.06.06.3.3.17.15c.26.19.57.29.88.3-1.47-3.14-3.33-6.07-5.95-8.34-4.96-4.3-11.22-6.12-17.59-6.12"/>
      <path class="cls-1" d="M181.86,123.86l-.28.03c-.66.12-1.17.66-1.25,1.33-.06.52-.06,1.07.01,1.64.02.18-.02.35-.11.5,2.65,3.94,8.4,10.93,17.15,13.58,0,0,13.51,7.06,10.09,17.31h0l.1-.28c1.06-3.13,1.28-6.01.66-8.82-.61-2.77-2.02-5.32-4.19-7.59-.83-.87-1.77-1.69-2.77-2.44-.49-.36-1.01-.7-1.54-1.04-.66-.41-1.35-.81-2.1-1.19-2.76-1.42-5.11-2.84-7.18-4.37-.84-.62-1.65-1.27-2.41-1.93-1.85-1.62-3.09-2.99-4.01-4.45-.3-.47-.57-.98-.82-1.46-.11-.21-.27-.39-.45-.52-.26-.19-.58-.3-.91-.3"/>
      <path class="cls-2" d="M164.72,152.4l2.74-1.59,11.5-15.41s-6.3-1.19-9.34-2.58c0,0-3.16,14.4-14.81,26.42l4.3-3.18c1.71-1.2,3.27-2.24,5.62-3.66Z"/>
    </g>
    <g>
      <path class="cls-3" d="M141.86,252.46v-39.94c0-11.73,5.92-18.07,16.59-18.07s16.59,6.34,16.59,18.07v39.94c0,11.73-5.92,18.07-16.59,18.07s-16.59-6.34-16.59-18.07ZM168.49,252.88v-40.79c0-7.93-3.59-11.73-10.04-11.73s-10.04,3.8-10.04,11.73v40.79c0,7.92,3.59,11.62,10.04,11.62s10.04-3.7,10.04-11.62Z"/>
      <path class="cls-3" d="M190.26,195.51h15.64c11.31,0,16.48,5.81,16.48,17.75v5.92c0,11.94-5.18,17.75-16.48,17.75h-9.09v32.55h-6.55v-73.97ZM205.9,230.9c6.87,0,9.93-3.06,9.93-11.41v-6.66c0-8.24-3.06-11.41-9.93-11.41h-9.09v29.48h9.09Z"/>
      <path class="cls-3" d="M235.91,195.51h29.59v5.92h-23.04v26.52h18.91v5.92h-18.91v29.59h23.04v6.02h-29.59v-73.97Z"/>
      <path class="cls-3" d="M278.6,195.51h8.67l19.23,57.17v-57.17h6.13v73.97h-6.97l-21.03-63.08v63.08h-6.02v-73.97Z"/>
      <path class="cls-3" d="M328.58,195.51h6.55v73.97h-6.55v-73.97Z"/>
      <path class="cls-3" d="M351.19,195.51h8.67l19.23,57.17v-57.17h6.13v73.97h-6.97l-21.03-63.08v63.08h-6.02v-73.97Z"/>
      <path class="cls-3" d="M401.18,195.51h28.64v5.92h-22.08v27.47h17.96v5.92h-17.96v34.66h-6.55v-73.97Z"/>
      <path class="cls-3" d="M442.49,195.51h29.59v5.92h-23.04v26.52h18.91v5.92h-18.91v29.59h23.04v6.02h-29.59v-73.97Z"/>
      <path class="cls-3" d="M485.18,195.51h15.75c11.52,0,16.38,5.18,16.38,16.8v4.54c0,8.24-2.85,13.21-8.98,14.9v.21c6.45,1.48,8.98,6.45,8.98,15.22v13.42c0,3.17.21,6.34,1.06,8.88h-6.66c-.53-2.11-.95-4.44-.95-8.98v-13.63c0-8.56-3.17-11.52-10.99-11.52h-8.03v34.13h-6.55v-73.97ZM499.66,229.21c7.5,0,11.1-3.17,11.1-11.2v-5.18c0-8.03-2.85-11.41-10.04-11.41h-8.98v27.79h7.92Z"/>
      <path class="cls-3" d="M532.63,195.51h29.59v5.92h-23.04v26.52h18.91v5.92h-18.91v29.59h23.04v6.02h-29.59v-73.97Z"/>
      <path class="cls-3" d="M575.32,195.51h8.67l19.23,57.17v-57.17h6.13v73.97h-6.97l-21.03-63.08v63.08h-6.02v-73.97Z"/>
      <path class="cls-3" d="M624.56,253.09v-41.32c0-10.78,5.81-17.33,16.06-17.33s16.27,6.55,16.27,17.33v7.61h-6.23v-7.93c0-7.18-3.91-11.09-9.93-11.09s-9.62,3.91-9.62,11.09v42.06c0,7.19,3.7,10.99,9.62,10.99s9.93-3.8,9.93-10.99v-10.04h6.23v9.62c0,10.88-5.81,17.43-16.27,17.43s-16.06-6.55-16.06-17.43Z"/>
      <path class="cls-3" d="M671.06,195.51h29.59v5.92h-23.04v26.52h18.91v5.92h-18.91v29.59h23.04v6.02h-29.59v-73.97Z"/>
    </g>
  </g>
</svg>