<?xml version="1.0" encoding="UTF-8"?>
<svg id="Layer_2" data-name="Layer 2" xmlns="http://www.w3.org/2000/svg" viewBox="0 0 379.03 376.35">
  <defs>
    <style>
      .cls-1 {
        opacity: .4;
      }

      .cls-1, .cls-2, .cls-3 {
        fill: #231f20;
        stroke-width: 0px;
      }

      .cls-2 {
        opacity: .5;
      }
    </style>
  </defs>
  <g id="Layer_16" data-name="Layer 16">
    <g>
      <path class="cls-3" d="M228.67,163.79c-.67-3.04-2.22-5.84-4.6-8.33-.91-.96-1.94-1.86-3.05-2.68-.54-.4-1.11-.77-1.69-1.14-.73-.45-1.48-.89-2.3-1.31-3.03-1.55-5.61-3.12-7.88-4.8-.92-.68-1.81-1.39-2.64-2.12-2.03-1.77-3.39-3.28-4.4-4.89-.33-.52-.62-1.07-.9-1.6-.12-.23-.29-.43-.49-.57-.37-.27-.84-.39-1.31-.3-.73.13-1.29.73-1.37,1.47-.07.57-.06,1.18.01,1.81.04.37-.15.72-.49.87-.08.03-.16.06-.25.07-.48.06-.92.32-1.19.72-.28.4-.36.9-.25,1.37.11.41.24.7.36.93l.11.21c.07.14.15.29.23.44.23.43.46.86.75,1.28.53.78,1.13,1.55,1.84,2.38.22.26.26.65.1.95-.17.31-.51.48-.86.43-4.02-.55-7.61-1.45-10.97-2.69-.38-.14-.77-.28-1.15-.43-3.01-1.27,2.42-6.68,4.91-10.51,10.89-16.75,13.15-35.94,13.24-55.35.09-18.77-1.94-37.27-5.67-55.54v-.03c-2.44-15.31-4.5-21.05-5.8-23.19-.28-.57-.58-.92-.91-1.09-.36-.24-.55-.13-.55-.13-.7.02-1.5.65-2.47,1.66-4.06,4.27-3.84,9.35-2.71,14.66,5.13,24.12,8.99,48.39,7.23,73.18-1.21,17.09-4.39,33.56-16.34,46.94-.72.8-1.49,1.56-2.26,2.32-.9.87-2.28,2.59-3.31,1.88-1.38-.96-.15-2.92.28-3.93,7-16.39,9.01-33.52,7.94-51.18-.02-.41-.07-.81-.09-1.22v-.02c-.02-.33-.05-.64-.07-.96-.18-2.34-.4-4.67-.69-6.98-3.01-28.02-6.62-29.83-6.62-29.83h0c-.24-.21-.54-.38-.94-.46-1.9-.4-2.93,1.27-3.78,2.54-3.79,5.69-2.12,11.73-.89,17.72,4.29,20.97,4.36,41.74-3.01,62.14-.67,1.86-1.48,3.67-2.33,5.45-.9,1.9-1.49,4.27-4.58,3.25-2.89-.96-2.08-3.15-1.7-5.15.96-5.08,1.75-10.18,2.23-15.29l.02.03c.04-.5.08-.99.12-1.48.07-.88.13-1.77.18-2.65.04-.74.08-1.47.11-2.18.01-.36.03-.73.04-1.09.58-16.2-2.13-23.56-3.17-25.73-.11-.27-.24-.51-.38-.72h0s0,0,0,0c-1.07-1.6-2.84-1.41-4.37.1-2.82,2.78-4.37,6.07-3.65,10.2,2.09,12.05.87,23.98-1.38,35.86-.3,1.59-1.02,4.49-4.42,3.75-2.32-.51-2.85-1.51-2.98-3.51.02-1.52,0-3.03-.04-4.55,0-.04,0-.08,0-.11h0c0-.21-.02-.43-.03-.64h0c0-.12-.01-.21-.02-.32-.1-2.07-.27-4.14-.53-6.21-.03-.2-.06-.39-.09-.59-1.3-11.69-2.99-12.83-2.99-12.83-1.08-1.41-2.78-1.17-4.25.28-2.82,2.78-4.24,6.05-3.65,10.2.43,3.04.32,2.1.63,4.75.24,1.36.49,3.84.52,4.63-.07.7-.24,1.32-.67,1.78-1.44,1.55-3.76-.04-5.52-.76-34.08-14.1-63.26-33.9-88.72-58.94-10.04-10.22-27.09-30.87-27.09-30.87h0c-.63-.74-1.43-1.16-2.64-.64C.18,35.43.25,38.28.04,40.68c-.4,4.8,2.16,8.28,4.95,11.55,38.46,44.87,85.39,77.11,142.03,93.23l10.19,2.7c.12.03.24.06.36.09.02,0,.03.01.06.02l8.77,2.33.24.06c-.29.08-.61.15-.96.21-9.66,1.91-28.77-1.6-44.11-5.18-7.6-1.6-15.05-3.53-22.35-5.83-.33-.1-.52-.15-.52-.15h0c-28.35-9.04-54.33-23.67-77.05-45.98-2.15-2.11-4.14-4.39-6.1-6.7-1.8-2.14-5.51-6.62-6.78-8.16-.14-.2-.29-.38-.45-.55h0s0,0,0,0c-.39-.4-.86-.65-1.52-.5-1.58.36-2.04,2-2.33,3.38-1.16,5.53.6,10.17,4.31,14.34,23.28,26.09,52.48,42.75,85.28,53.68,18.62,6.2,37.78,9.97,57.33,12.38-11.65,3.78-23.64,4.92-35.73,4.62-23.41-.58-45.35-6.21-65.98-16.23-7.61-3.91-14.69-8.27-16.55-9.44-1.07-.73-2.17-1.18-3.27-.33-2.05,1.59-.64,4.38.02,6.56,1.27,4.19,4.17,7.09,7.96,9.09,33.6,17.77,69.08,24.87,106.85,18.57,3.83-.64,7.45-1.34,11.45-2.69-6.31,5.47-13.62,9.03-21.32,11.84-23.65,8.65-47.15,8.3-70.57,2.45-7.51-2.01-16.23-5.28-16.23-5.28h0c-1.26-.55-2.5-.74-3.48.65-1.71,2.45-.22,4.99,1.26,7.29,3.49,5.44,10.25,5.97,15.58,7.82,1.82.58-3.15,3.9-4.74,5.12-7.74,5.92-15.32,11.34-23.03,17.07l-5.05,3.72h0c-.87.6-1.64,1.27-1.23,2.53.46,1.41,1.93,1.66,3.35,1.96,5.52,1.14,10.23-.69,14.58-3.94,9.34-7,18.85-13.78,27.99-21.05,3.48-2.77,6.63-2.54,11.39-1.31-11.89,8.96-23.01,17.34-34.14,25.73-11.29,8.5-22.6,16.99-33.9,25.48l-7.47,5.52c-.11.08-.21.16-.32.24l-.11.08h0c-.64.51-1.1,1.08-.97,1.82.3,1.68,2.28,2.1,3.9,2.38,6.68,1.15,10.81-1.36,15.38-4.79,22.84-17.15,45.76-34.17,68.47-51.49,5.09-3.88,10.32-6.07,17.68-5.25-6.26,4.68-12.26,9.17-18.19,13.6l-16.1,11.92c-.12.08-.23.16-.34.25h-.01c-.85.67-1.45,1.47-1.12,2.64.62,2.13,3.18,2.38,5.35,2.71,4,.6,7.39-.82,10.53-3.15,1.81-1.34,3.63-2.67,5.45-3.99h0s24.59-19.53,24.59-19.53c0,0,5.81-4.15,12.53-7.97.6-.38,1.2-.75,1.81-1.11.26-.12.9-.41,1.86-.87.72-.37,1.45-.74,2.17-1.08,1.05-.54,2.29-1.19,3.65-1.94,3.96-1.65,15.31-6.94,24.69-16.93,4.46-3.44,10.74-7.94,15.63-10.1h0s.03-.01.03-.01c.37-.16.74-.31,1.09-.45h0s.03,0,.04-.02c.24-.09.47-.17.7-.25l.63-.25c1.77-.5,4.65-.69,5.03,3.21.07.96.05,1.94-.06,2.97-.08.78-.23,1.6-.34,2.26-.12.64.15,1.28.66,1.65.08.06.17.11.26.16.68.33,1.49.18,2-.38.19-.21.38-.42.58-.62,2.41-2.53,4.85-4.29,7.45-5.36,3.8-1.57,7.64-1.58,11.74-.02,1.95.74,3.78,1.76,5.6,3.1.77.57,1.56,1.21,2.32,1.91.46.42.92.88,1.32,1.29l.07.07.33.33c.06.06.13.12.19.17.39.28.88.39,1.36.29.56-.12,1.02-.52,1.22-1.05.04-.1.08-.21.11-.31,1.16-3.44,1.4-6.6.72-9.68Z"/>
      <path class="cls-3" d="M156.05,126.91c-.28,1.7-.57,3.41-.89,5.11.32-1.7.61-3.4.89-5.11h0Z"/>
      <path class="cls-3" d="M186.28,145.86c.12.05.25.1.37.14-.12-.05-.25-.09-.37-.14"/>
      <polyline class="cls-3" points="172 136.53 172 136.54 172 136.53"/>
      <polyline class="cls-3" points="172.48 135.38 172.48 135.39 172.48 135.38"/>
      <path class="cls-3" d="M172.58,135.14s-.02.05-.03.07c0-.02.02-.05.03-.07"/>
      <path class="cls-3" d="M191.34,135.11s-.04.06-.06.09c.02-.03.04-.06.06-.09"/>
      <path class="cls-3" d="M161.44,133.91c-.21.44-.4.91-.62,1.36.21-.45.41-.92.62-1.36"/>
      <polyline class="cls-3" points="141.16 132.91 141.17 132.91 141.16 132.91"/>
      <polyline class="cls-3" points="138.12 131.54 138.12 131.54 138.12 131.54"/>
      <polyline class="cls-3" points="138.11 131.52 138.11 131.52 138.11 131.52"/>
      <polyline class="cls-3" points="138.09 131.49 138.09 131.5 138.09 131.49"/>
      <polyline class="cls-3" points="138.08 131.48 138.08 131.49 138.08 131.48"/>
      <path class="cls-3" d="M138.06,131.45s.01.02.02.02c0,0-.01-.02-.02-.02"/>
      <path class="cls-3" d="M137.5,129.32s0,0,0,.01c0,0,0,0,0-.01"/>
      <path class="cls-3" d="M145.09,128.03c-.06.34-.13.68-.19,1.03.06-.34.13-.68.19-1.03"/>
      <path class="cls-3" d="M126.38,125.68c-.23.24-.47.41-.74.51.26-.1.51-.27.74-.51"/>
      <path class="cls-3" d="M138.12,131.54c.19.26.43.48.74.67h0c-.31-.19-.55-.41-.74-.67M138.11,131.52s0,.01,0,.02c0,0,0,0,0-.02M138.09,131.5h.01s0,0-.01,0M138.08,131.49s0,0,0,0c0,0,0,0,0,0M138.08,131.47s0,0,0,0c0,0,0,0,0,0M138.06,131.45s0,0,0,0c0,0,0,0,0,0M137.51,129.34s0,0,0,.01c0,0,0,0,0-.01M137.5,129.29h0s0,.02,0,.03c0,0,0-.02,0-.03M122.72,125.77s.02,0,.03.01c.71.31,1.43.55,2.09.55.28,0,.54-.04.79-.14-.25.1-.52.14-.79.14-.67,0-1.4-.25-2.12-.56M137.4,123.54s0,.01,0,.02c0,0,0-.01,0-.02"/>
      <path class="cls-3" d="M186.65,146c.06.02.12.04.18.07h0c-.06-.02-.12-.04-.18-.07M173.06,140.52s0,0,0,0c0,0,0,0,0,0M171.01,139.41c0,.48.17.92.64,1.25.17.12.35.17.53.17.28,0,.58-.12.87-.31-.3.19-.59.31-.87.31-.19,0-.37-.05-.54-.17-.47-.32-.64-.77-.64-1.25M172,136.54c-.03.06-.05.13-.08.19.03-.06.05-.13.08-.19M172.48,135.39c-.16.38-.32.77-.48,1.15.16-.38.32-.76.48-1.15M172.55,135.22c-.02.05-.04.11-.07.16.02-.05.04-.11.07-.16M191.28,135.21s-.01.02-.02.03c0,0,.01-.02.02-.03M191.35,135.09s-.01.02-.02.03c0,0,.01-.02.02-.03M172.61,135.07s-.02.04-.03.07c0-.02.02-.05.03-.07M154.76,134.56c0,1.09.44,2.05,2.1,2.6.51.17.96.25,1.34.25,1.4,0,2.07-.99,2.62-2.13-.55,1.14-1.22,2.13-2.62,2.13-.39,0-.83-.08-1.34-.25-1.66-.55-2.1-1.51-2.1-2.6M141.15,132.91h.01-.01M143.86,131.8c-.5.65-1.24,1.13-2.35,1.13-.11,0-.23,0-.35-.02.12,0,.24.02.35.02,1.11,0,1.85-.48,2.35-1.13M165.39,123.6s-.01,0-.02,0c-.49,1.62-1.01,3.24-1.6,4.86-.67,1.86-1.48,3.67-2.33,5.45h0c.85-1.78,1.66-3.59,2.33-5.45.58-1.62,1.12-3.24,1.61-4.86M145.99,122.7c-.27,1.78-.57,3.56-.9,5.33.33-1.78.63-3.55.9-5.33h0M189.48,114.17s0,0,0,0c-2.44,8-6.23,15.54-12.26,22.29-.72.8-1.49,1.56-2.26,2.32h0c.77-.76,1.54-1.51,2.26-2.32,6.03-6.75,9.82-14.29,12.26-22.3"/>
      <path class="cls-1" d="M3.41,34.24c-.3,0-.63.07-1.01.23-1.58.68-2.01,2.32-2.19,4.08,8.48,11.12,41.98,52.12,94.68,80.25,0,0,51.6,27.24,103.5,30.18-4.02-.55-7.61-1.45-10.97-2.69-.2-.07-.4-.15-.6-.22h0c-18.86-4.07-34.93-9.17-46.3-13.25.22.05.43.08.63.1-.21-.02-.43-.05-.66-.1-.69-.15-1.22-.34-1.63-.59-8.99-3.28-14.72-5.81-16.11-6.43-.66-.28-1.31-.62-1.89-.86-34.08-14.1-63.26-33.9-88.72-58.94-10.04-10.22-27.09-30.87-27.09-30.87h0c-.44-.51-.96-.87-1.63-.87"/>
      <path class="cls-1" d="M7.17,77.77c-.12,0-.25.01-.38.04-1.58.36-2.04,2-2.33,3.38-.05.25-.1.5-.14.74,26.35,35.69,61.7,50.28,61.7,50.28,35.3,16.63,64.27,19.99,81.91,19.99,7.3,0,12.66-.57,15.73-1.02-1.4.16-2.94.23-4.6.23-10.34,0-25.13-2.84-37.48-5.72-7.6-1.6-15.05-3.53-22.35-5.83-.33-.1-.52-.15-.52-.15h0c-28.35-9.04-54.33-23.67-77.05-45.98-2.15-2.11-4.14-4.39-6.1-6.7-1.8-2.14-5.51-6.62-6.78-8.16-.14-.2-.29-.38-.45-.55h0s0,0,0,0c-.31-.32-.67-.54-1.14-.54"/>
      <path class="cls-1" d="M31.12,139.76c-.42,0-.84.13-1.26.46-1.79,1.38-.94,3.68-.26,5.69,13.2,8.02,43.5,23.61,79.38,23.61,13.55,0,27.88-2.22,42.41-7.91-10.48,3.4-21.24,4.66-32.1,4.66-1.21,0-2.42-.02-3.63-.05-23.41-.58-45.35-6.21-65.98-16.23-7.61-3.91-14.69-8.27-16.55-9.44-.66-.45-1.33-.79-2-.79"/>
      <path class="cls-1" d="M153.8,173.65c-5.75,4.41-12.22,7.46-18.98,9.94-12.69,4.64-25.34,6.69-37.94,6.69-10.9,0-21.77-1.53-32.62-4.25-7.51-2.01-16.23-5.28-16.23-5.28h0c-.55-.24-1.1-.41-1.62-.41-.67,0-1.31.28-1.85,1.06-.79,1.14-.9,2.3-.63,3.44,8.33,3.87,26.21,10.75,48,10.75,18.9,0,40.74-5.17,61.89-21.95"/>
      <path class="cls-1" d="M97.6,200.67c-20.47,0-35.95-4.14-37.9-4.69.57.17,1.14.34,1.69.53,1.82.58-3.15,3.9-4.74,5.12-5.72,4.38-11.36,8.48-17.02,12.64h17.37c5.47-4.05,10.93-8.12,16.26-12.35,1.98-1.58,3.86-2.18,5.98-2.18,1.61,0,3.36.34,5.41.87-11.89,8.96-23.01,17.34-34.14,25.73-6.51,4.9-13.02,9.79-19.53,14.68h17.48c15.71-11.76,31.43-23.53,47.03-35.43,3.6-2.74,7.27-4.64,11.71-5.23-3.29.22-6.49.31-9.58.31Z"/>
      <path class="cls-1" d="M93.94,214.69h16.89l12.47-9.91s5.81-4.15,12.53-7.97c.6-.38,1.2-.75,1.81-1.11.26-.12.9-.41,1.86-.87.72-.37,1.45-.74,2.17-1.08,1.1-.56,2.38-1.24,3.81-2.03-12.04,5.04-24.37,7.5-35.78,8.45.16,0,.31,0,.47,0,.96,0,1.95.06,2.99.17-6.26,4.68-12.26,9.17-18.19,13.6l-1.01.75Z"/>
      <path class="cls-1" d="M137.5,129.29c.02-1.52,0-3.03-.04-4.55v-.11s0,0,0,0c0-.21-.02-.43-.03-.64h0s-.02-.32-.02-.32c-.06-1.28-.16-2.55-.28-3.83-4.03-1.69-7.82-3.86-11.32-6.41.02.36.04.72.09,1.09.43,3.04.32,2.1.63,4.75.24,1.36.49,3.84.52,4.63-.07.7-.24,1.32-.67,1.78-.44.48-.97.65-1.53.65-.67,0-1.4-.25-2.12-.56,1.33.6,7.08,3.14,16.14,6.45-.97-.59-1.27-1.51-1.36-2.92Z"/>
      <path class="cls-1" d="M203.19,100.64c-3.77,5.25-8.41,9.84-13.72,13.54-2.44,8-6.23,15.54-12.26,22.29-.72.8-1.49,1.56-2.26,2.32-.75.73-1.83,2.05-2.77,2.05-.19,0-.37-.05-.54-.17-1.38-.96-.15-2.92.28-3.93,2.26-5.29,3.99-10.65,5.27-16.09-3.77,1.41-7.74,2.41-11.82,2.96-.49,1.62-1.01,3.24-1.6,4.86-.67,1.86-1.48,3.67-2.33,5.45-.75,1.58-1.29,3.49-3.23,3.49-.39,0-.83-.08-1.34-.25-2.89-.96-2.08-3.15-1.7-5.15.5-2.65.95-5.3,1.34-7.96-3.59-.11-7.1-.57-10.5-1.36-.32,2.12-.69,4.24-1.09,6.36-.27,1.42-.87,3.87-3.39,3.87-.3,0-.63-.03-1-.11,11.37,4.08,27.44,9.18,46.3,13.26h0c-.19-.08-.37-.15-.55-.22-3.01-1.27,2.42-6.68,4.91-10.51,7-10.76,10.42-22.53,12.01-34.71Z"/>
      <path class="cls-2" d="M200.37,158.99c-2.36,0-4.73.23-7.07.66-.44.08-.87.12-1.29.12-.66,0-1.29-.1-1.87-.27.09.12.19.23.28.35,1.02,1.42,1.56,2.98,1.76,4.6.26.28.48.63.64,1.07h0s0,.01,0,.02c0,0,0,0,0,0,0,0,0,.01,0,.02,0,0,0,0,0,0,0,0,0,.01,0,.02,0,0,0,0,0,0,0,0,0,0,0,.01,0,0,0,0,0,0,0,0,0,0,0,.02,0,0,0,0,0,0,0,0,0,0,0,.01,0,0,0,0,0,0,0,0,0,0,0,.01,0,0,0,0,0,0,0,0,0,0,0,.01,0,0,0,0,0,0,0,0,0,0,0,.01,0,0,0,0,0,0,0,0,0,0,0,.01,0,0,0,0,0,.01,0,0,0,0,0,0h0s0,.02,0,.02c0,0,0,0,0,.01,0,0,0,0,0,0,0,0,0,0,0,.02,0,0,0,0,0,0,0,0,0,0,0,.01,0,0,0,0,0,0,0,0,0,.01,0,.02,0,0,0,0,0,0,0,0,0,.01,0,.02,0,0,0,0,0,0,0,0,0,.01,0,.02,0,0,0,0,0,0,0,0,0,0,0,.01t0,0s0,.01,0,.02c0,0,0,0,0,0,0,0,0,.01,0,.02,0,0,0,0,0,0,0,0,0,.01,0,.02,0,0,0,0,0,0,0,0,0,0,0,.01,0,0,0,0,0,.01,0,0,0,0,0,0,0,0,0,0,0,0,0,0,0,0,0,.01,0,0,0,0,0,.01,0,0,0,0,0,.01s0,0,0,.01c0,0,0,0,0,0,0,0,0,.01,0,.02,0,0,0,0,0,0,0,0,0,0,0,.01,0,0,0,0,0,.01s0,0,0,.01c0,0,0,0,0,.01,0,0,0,0,0,.01,0,0,0,0,0,0,0,0,0,.01,0,.02,0,0,0,0,0,0,0,0,0,.01,0,.02,0,0,0,0,0,0,0,0,0,0,0,.01,0,0,0,0,0,0,0,0,0,0,0,.02,0,0,0,0,0,0,0,0,0,.01,0,.02,0,0,0,0,0,0,0,0,0,.01,0,.02,0,0,0,0,0,0,0,0,0,.01,0,.02,0,0,0,0,0,0,0,0,0,.01,0,.02,0,0,0,0,0,0,0,0,0,.01,0,.02,0,0,0,0,0,0,0,0,0,.01,0,.02h0s0,.02,0,.03h0s0,.01,0,.02h0s0,.02,0,.03h0s0,.02,0,.03h0s0,.02,0,.03h0s0,.02,0,.03h0s0,.02,0,.02h0s0,.02,0,.03c0,0,0,0,0,0,0,.02,0,.05.01.08h0s0,.02,0,.03h0s0,.05,0,.08h0s0,.02,0,.03h0s0,.02,0,.03h0s0,.04,0,.06h0s0,.02,0,.03h0s0,.02,0,.03h0s0,.02,0,.03h0c.03.37.04.75.04,1.13,0,.6-.03,1.21-.1,1.84-.08.78-.23,1.6-.34,2.26-.02.1-.03.2-.03.3,0,.53.26,1.04.69,1.35l.26.16c.24.12.49.17.75.17.47,0,.92-.19,1.25-.55.19-.21.38-.42.58-.62,2.41-2.53,4.85-4.29,7.45-5.36,1.9-.79,3.82-1.18,5.78-1.18s3.92.39,5.96,1.17c1.95.74,3.78,1.76,5.6,3.1.77.57,1.56,1.21,2.32,1.91.46.42.92.88,1.32,1.29l.07.07.33.33.19.17c.28.21.62.32.97.33-1.61-3.45-3.65-6.66-6.54-9.16-5.45-4.72-12.33-6.72-19.32-6.72"/>
      <path class="cls-1" d="M199.71,136.02l-.31.03c-.73.13-1.29.73-1.37,1.47-.07.57-.06,1.18.01,1.81.02.2-.02.39-.12.55,2.91,4.33,9.23,12.01,18.83,14.91,0,0,14.83,7.76,11.08,19.01h0l.11-.31c1.16-3.44,1.4-6.6.72-9.68-.67-3.04-2.22-5.84-4.6-8.33-.91-.96-1.94-1.86-3.05-2.68-.54-.4-1.11-.77-1.69-1.14-.73-.45-1.48-.89-2.3-1.31-3.03-1.55-5.61-3.12-7.88-4.8-.92-.68-1.81-1.39-2.64-2.12-2.03-1.77-3.39-3.28-4.4-4.89-.33-.52-.62-1.07-.9-1.6-.12-.23-.29-.43-.49-.57-.29-.21-.64-.33-1-.33"/>
      <path class="cls-2" d="M180.89,167.36l3-1.75,12.63-16.93s-6.92-1.31-10.25-2.83c0,0-3.47,15.81-16.27,29.02l4.72-3.5c1.88-1.32,3.59-2.46,6.17-4.02Z"/>
    </g>
    <g>
      <path class="cls-3" d="M210.38,258.88v-39.95c0-11.73,5.92-18.07,16.59-18.07s16.59,6.34,16.59,18.07v39.95c0,11.73-5.92,18.07-16.59,18.07s-16.59-6.34-16.59-18.07ZM237.01,259.3v-40.79c0-7.93-3.59-11.73-10.04-11.73s-10.04,3.8-10.04,11.73v40.79c0,7.93,3.59,11.62,10.04,11.62s10.04-3.7,10.04-11.62Z"/>
      <path class="cls-3" d="M258.77,201.92h15.64c11.31,0,16.49,5.81,16.49,17.75v5.92c0,11.94-5.18,17.75-16.49,17.75h-9.09v32.55h-6.55v-73.97ZM274.41,237.32c6.87,0,9.93-3.06,9.93-11.41v-6.66c0-8.24-3.06-11.41-9.93-11.41h-9.09v29.48h9.09Z"/>
      <path class="cls-3" d="M302.31,201.92h29.59v5.92h-23.04v26.52h18.92v5.92h-18.92v29.59h23.04v6.02h-29.59v-73.97Z"/>
      <path class="cls-3" d="M345,201.92h8.67l19.23,57.17v-57.17h6.13v73.97h-6.97l-21.03-63.09v63.09h-6.02v-73.97Z"/>
    </g>
    <g>
      <path class="cls-3" d="M9.08,301.32h6.55v73.97h-6.55v-73.97Z"/>
      <path class="cls-3" d="M31.69,301.32h8.67l19.23,57.17v-57.17h6.13v73.97h-6.97l-21.03-63.09v63.09h-6.02v-73.97Z"/>
      <path class="cls-3" d="M81.67,301.32h28.64v5.92h-22.09v27.48h17.96v5.92h-17.96v34.66h-6.55v-73.97Z"/>
      <path class="cls-3" d="M120.87,301.32h29.59v5.92h-23.04v26.52h18.92v5.92h-18.92v29.59h23.04v6.02h-29.59v-73.97Z"/>
      <path class="cls-3" d="M163.56,301.32h15.75c11.52,0,16.38,5.18,16.38,16.8v4.54c0,8.24-2.85,13.21-8.98,14.9v.21c6.45,1.48,8.98,6.45,8.98,15.22v13.42c0,3.17.21,6.34,1.06,8.88h-6.66c-.53-2.11-.95-4.44-.95-8.98v-13.63c0-8.56-3.17-11.52-10.99-11.52h-8.03v34.13h-6.55v-73.97ZM178.04,335.03c7.5,0,11.1-3.17,11.1-11.2v-5.18c0-8.03-2.85-11.41-10.04-11.41h-8.98v27.79h7.93Z"/>
      <path class="cls-3" d="M211.01,301.32h29.59v5.92h-23.04v26.52h18.92v5.92h-18.92v29.59h23.04v6.02h-29.59v-73.97Z"/>
      <path class="cls-3" d="M253.7,301.32h8.67l19.23,57.17v-57.17h6.13v73.97h-6.97l-21.03-63.09v63.09h-6.02v-73.97Z"/>
      <path class="cls-3" d="M302.94,358.92v-41.32c0-10.78,5.81-17.33,16.06-17.33s16.27,6.55,16.27,17.33v7.61h-6.23v-7.93c0-7.19-3.91-11.1-9.93-11.1s-9.62,3.91-9.62,11.1v42.06c0,7.19,3.7,10.99,9.62,10.99s9.93-3.8,9.93-10.99v-10.04h6.23v9.62c0,10.88-5.81,17.44-16.27,17.44s-16.06-6.55-16.06-17.44Z"/>
      <path class="cls-3" d="M349.44,301.32h29.59v5.92h-23.04v26.52h18.92v5.92h-18.92v29.59h23.04v6.02h-29.59v-73.97Z"/>
    </g>
  </g>
</svg>